<?xml version="1.0" standalone="no"?>
<!DOCTYPE svg PUBLIC "-//W3C//DTD SVG 1.1//EN" "http://www.w3.org/Graphics/SVG/1.1/DTD/svg11.dtd" >
<svg xmlns="http://www.w3.org/2000/svg" xmlns:xlink="http://www.w3.org/1999/xlink" version="1.1">
<metadata>
Created by FontForge 20170731 at Thu Mar  5 01:00:00 1998
 By ,,,
Copyright (c) 1992-97 Hewlett-Packard. All rights reserved.
</metadata>
<defs>
<font id="Helvetica-Bold" horiz-adv-x="1139" >
  <font-face 
    font-family="Helvetica"
    font-weight="700"
    font-stretch="normal"
    units-per-em="2048"
    panose-1="2 11 8 6 3 7 2 4 2 4"
    ascent="1638"
    descent="-410"
    x-height="1088"
    cap-height="1470"
    bbox="-778 -731 2048 1970"
    underline-thickness="102"
    underline-position="-358"
    unicode-range="U+0020-FB01"
  />
<missing-glyph horiz-adv-x="669" 
d="M0 1274h569v-1274h-569v1274zM100 1174v-1074h369v1074h-369z" />
    <glyph glyph-name=".notdef" horiz-adv-x="669" 
d="M0 1274h569v-1274h-569v1274zM100 1174v-1074h369v1074h-369z" />
    <glyph glyph-name="glyph1" horiz-adv-x="0" 
 />
    <glyph glyph-name="nonmarkingreturn" horiz-adv-x="682" 
 />
    <glyph glyph-name="space" unicode=" " horiz-adv-x="569" 
 />
    <glyph glyph-name="exclam" unicode="!" horiz-adv-x="682" 
d="M267 403l-83 706v357h158h158v-357l-82 -706h-76v0h-75zM189 289h306v-289h-306v289z" />
    <glyph glyph-name="quotedbl" unicode="&#x22;" horiz-adv-x="971" 
d="M201 916v554h201v-554h-201zM569 916v554h201v-554h-201z" />
    <glyph glyph-name="numbersign" unicode="#" 
d="M571 1429l-57 -400h199l57 400h195l-57 -400h193l-26 -188h-194l-36 -250h195l-26 -188h-195l-58 -405h-195l58 405h-199l-58 -405h-195l58 405h-193l26 188h193l36 250h-194l26 188h195l57 400h195zM487 841l-36 -250h200l35 250h-199z" />
    <glyph glyph-name="dollar" unicode="$" 
d="M607 1592v-141q199 -10 311 -109q124 -110 124 -312v0h-262v0q0 113 -49 162q-39 39 -124 46v-387l25 -8q240 -69 340 -170q100 -100 100 -273q0 -202 -137 -321q-125 -109 -328 -118v-199h-93v198q-217 13 -335 123t-118 318l1 36v0h278v0q-6 -131 50 -194
q44 -48 124 -60v428q-218 69 -316 158q-106 97 -106 257q0 196 128 311q112 100 294 111v144h93zM514 1236q-64 -9 -105 -44q-57 -48 -57 -134q0 -72 65 -122q36 -28 97 -53v353zM607 182q79 8 129 52q61 53 61 147q0 79 -55 130q-42 41 -135 71v-400z" />
    <glyph glyph-name="percent" unicode="%" horiz-adv-x="1821" 
d="M429 709q-156 0 -264 106.5t-108 261.5q0 158 108 267.5t264 109.5t264 -109.5t108 -267.5q0 -155 -108 -261.5t-264 -106.5v0zM429 1244q-69 0 -114.5 -47t-45.5 -118q0 -69 45.5 -114.5t114.5 -45.5t114.5 45.5t45.5 114.5q0 71 -45.5 118t-114.5 47v0zM428 -40
l815 1494h150l-815 -1494h-150zM1392 -11q-156 0 -264 106.5t-108 261.5q0 158 108 267.5t264 109.5t264 -109.5t108 -267.5q0 -155 -108 -261.5t-264 -106.5v0zM1392 524q-69 0 -114.5 -47t-45.5 -118q0 -69 45.5 -114.5t114.5 -45.5t114.5 45.5t45.5 114.5q0 71 -45.5 118
t-114.5 47v0z" />
    <glyph glyph-name="ampersand" unicode="&#x26;" horiz-adv-x="1479" 
d="M296 1114q0 163 104 259t282 96q164 0 260.5 -93.5t96.5 -252.5q0 -118 -81 -213q-57 -68 -164 -133l217 -264l20 39q50 105 60 210h253q-14 -147 -87 -300q-37 -79 -84 -146l263 -316h-340l-100 120q-83 -73 -154 -106q-102 -47 -265 -47q-214 0 -340 111.5t-126 301.5
q0 162 97 275q68 81 215 169l-8 9q-55 66 -87 142t-32 139zM617 202q69 0 135 38q41 24 91 67l-90 108l-184 227q-55 -39 -93 -76q-77 -79 -77 -170t58 -143q58 -51 160 -51zM557 1136q0 -31 12.5 -64.5t35.5 -60.5l58 -72q41 29 72 59q63 64 63 126q0 60 -32 94t-88 34
q-57 0 -89 -31q-32 -30 -32 -85z" />
    <glyph glyph-name="quotesingle" unicode="'" horiz-adv-x="487" 
d="M143 916v554h201v-554h-201z" />
    <glyph glyph-name="parenleft" unicode="(" horiz-adv-x="682" 
d="M72 542q0 240 88 467.5t286 500.5h197q-146 -237 -210.5 -464.5t-63.5 -503.5q1 -277 65 -504.5t209 -463.5h-197q-198 273 -286 501q-88 227 -88 467z" />
    <glyph glyph-name="parenright" unicode=")" horiz-adv-x="682" 
d="M610 542q0 -240 -88 -467.5t-286 -500.5h-197q146 237 210.5 464.5t63.5 503.5q-1 277 -65 504.5t-209 463.5h197q198 -273 286 -501q88 -227 88 -467z" />
    <glyph glyph-name="asterisk" unicode="*" horiz-adv-x="797" 
d="M488 1467l-5 -239v0l216 80l52 -166l-221 -67v0l140 -188l-137 -103l-131 197v0l-130 -196l-137 102l141 190v0l-221 66l52 166l218 -80v0l-6 238h169z" />
    <glyph glyph-name="plus" unicode="+" horiz-adv-x="1196" 
d="M480 401h-398v236h398v398h236v-398h398v-236h-398v-398h-236v398z" />
    <glyph glyph-name="comma" unicode="," horiz-adv-x="569" 
d="M131 149v149h154h153v-257q0 -159 -75 -253.5t-232 -132.5v0v110v0q103 35 139 102q26 46 31 133v0h-78h-92v149z" />
    <glyph glyph-name="hyphen" unicode="-" horiz-adv-x="682" 
d="M55 709h572v-270h-572v270z" />
    <glyph glyph-name="period" unicode="." horiz-adv-x="569" 
d="M131 298h306v-298h-306v298z" />
    <glyph glyph-name="slash" unicode="/" horiz-adv-x="569" 
d="M636 1510l-467 -1550h-236l467 1550h236z" />
    <glyph glyph-name="zero" unicode="0" 
d="M569 -38q-256 0 -379 181.5t-124 558.5q1 386 124 571t379 185q258 0 381 -185t123 -564v-7q1 -377 -122.5 -558.5t-381.5 -181.5v0zM569 194q115 0 162 115t47 395q1 287 -46.5 404.5t-162.5 117.5q-114 0 -160.5 -117.5t-47.5 -404.5q0 -280 47 -395t161 -115v0z" />
    <glyph glyph-name="one" unicode="1" 
d="M491 0v1005v0h-350v205q134 -7 240 59q107 66 162 189h235v0v-1458v0h-143h-144v0z" />
    <glyph glyph-name="two" unicode="2" 
d="M1047 1000q0 -166 -77.5 -275t-290.5 -245q-197 -125 -269 -226l-1 -2h638v-252h-994v0q0 200 101 343t380 339q125 87 176 159.5t51 161.5q0 97 -56 156t-148 59q-98 0 -153 -74t-51 -201v0h-281v0q-7 237 124.5 376t362.5 139q215 0 352 -128q136 -128 136 -330z" />
    <glyph glyph-name="three" unicode="3" 
d="M727 1033q0 85 -49 137.5t-130 52.5q-94 0 -145.5 -59.5t-53.5 -169.5v0h-264v0q3 223 128.5 343.5t353.5 120.5q196 0 321 -114t125 -293q0 -155 -130 -254l-39 -26v0q50 -19 88 -50q125 -97 125 -292q0 -215 -135.5 -341t-365.5 -126q-237 0 -367.5 124.5t-133.5 354.5
v0h279v0q2 -123 55.5 -187.5t154.5 -64.5q98 0 158 65t60 171q0 93 -60 150q-53 49 -134 55q-45 3 -83.5 3.5t-49.5 -2.5v212q12 -2 51 -0.5t83 6.5q68 8 108 47q50 48 50 137z" />
    <glyph glyph-name="four" unicode="4" 
d="M632 321h-577v124v124l539 888h160h160v-908v0h164v-228h-164v0v-321h-282v321v0zM632 549v0v606v0v0l-353 -586l-12 -20v0h365z" />
    <glyph glyph-name="five" unicode="5" 
d="M1057 481q0 -239 -143.5 -379t-388.5 -140q-195 0 -322 114.5t-148 310.5v0h288v0q11 -97 64 -147.5t145 -50.5q94 0 152 73t58 192q0 122 -59 196.5t-155 74.5q-60 0 -111.5 -27t-79.5 -73l-252 12l95 792v0h797v-243h-591v0l-50 -309v0q120 75 260 75q194 0 318 -132
q123 -132 123 -339z" />
    <glyph glyph-name="six" unicode="6" 
d="M614 1458q181 0 297 -105t124 -276v0h-283v0q1 68 -39.5 109t-108.5 41h-12q-129 1 -190 -124q-48 -97 -58 -283v0q116 122 280 122q194 0 317.5 -133.5t123.5 -342.5q0 -222 -140.5 -363t-360.5 -141q-246 0 -373.5 184.5t-127.5 539.5q0 391 141 588q131 185 380 185z
M349 459q0 -115 61.5 -191t153.5 -76q105 0 160 68t55 199q0 114 -59 183.5t-156 69.5t-156 -70q-59 -69 -59 -183z" />
    <glyph glyph-name="seven" unicode="7" 
d="M257 0q32 328 178 649q136 299 339 528v0h-723v252h1031v-108v-109q-222 -242 -362 -564q-140 -321 -168 -648h-295z" />
    <glyph glyph-name="eight" unicode="8" 
d="M845 774v0q48 -24 90 -58q138 -113 138 -299q0 -205 -138.5 -330t-365.5 -125q-226 0 -364.5 125t-138.5 330q0 186 139 300q40 34 88 56v0l-56 37q-126 95 -126 250q0 179 126 288.5t332 109.5t332 -109.5t126 -288.5q0 -155 -126 -250q-27 -20 -56 -36zM569 861
q83 0 132 48.5t49 131.5q0 85 -49 135t-132 50t-132 -50t-49 -135q0 -83 49 -132q49 -48 132 -48zM569 647q-96 0 -152 -62t-56 -167q0 -103 56 -163.5t152 -60.5t152.5 60.5t56.5 163.5q0 105 -57 167q-56 62 -152 62z" />
    <glyph glyph-name="nine" unicode="9" 
d="M515 -38q-183 0 -299.5 105t-124.5 276v0h283v0q-1 -68 40.5 -109t110.5 -41h14q128 -1 190 123q48 97 60 285v0q-119 -123 -284 -123q-195 0 -319.5 133.5t-124.5 342.5q0 222 141 363t363 141q247 0 375.5 -184.5t128.5 -539.5q0 -391 -142 -588q-132 -185 -382 -185z
M783 961q0 115 -62 191t-156 76q-107 0 -162.5 -68t-55.5 -199q0 -114 60 -183.5t158 -69.5t158 70q60 69 60 183z" />
    <glyph glyph-name="colon" unicode=":" horiz-adv-x="682" 
d="M188 298h306v-298h-306v298zM188 1050h306v-298h-306v298z" />
    <glyph glyph-name="semicolon" unicode=";" horiz-adv-x="682" 
d="M188 150v149h154h153v-223q0 -180 -73.5 -281.5t-226.5 -133.5v0v110v0q97 30 131 96q24 45 29 133v0h-75h-92v150zM188 1050h306v-298h-306v298z" />
    <glyph glyph-name="less" unicode="&#x3c;" horiz-adv-x="1196" 
d="M78 421v98v98l1040 441v-227l-739 -311v0l739 -313v-227z" />
    <glyph glyph-name="equal" unicode="=" horiz-adv-x="1196" 
d="M82 410h1032v-231h-1032v231zM82 860h1032v-231h-1032v231z" />
    <glyph glyph-name="greater" unicode="&#x3e;" horiz-adv-x="1196" 
d="M1118 421l-1040 -441v227l739 313v0l-739 311v227l1040 -441v-98v-98z" />
    <glyph glyph-name="question" unicode="?" horiz-adv-x="1251" 
d="M631 1253q-110 0 -164.5 -61t-58.5 -188v0h-285v0q7 231 141.5 361t366.5 130q233 0 370 -117t137 -316q0 -106 -63.5 -199.5t-211.5 -204.5q-58 -44 -80.5 -94.5t-19.5 -132.5h-266q-4 141 47 238t177 185q60 42 85 89t25 119q0 88 -54 140q-54 51 -146 51zM480 286h300
v-286h-300v286z" />
    <glyph glyph-name="at" unicode="@" horiz-adv-x="1997" 
d="M1345 462q102 0 173 114.5t71 280.5q0 205 -160 347t-391 142q-250 0 -423 -178t-173 -435t168 -435t412 -178q151 0 281.5 49t192.5 129h181q-88 -154 -265.5 -248t-380.5 -94q-332 0 -560.5 225.5t-228.5 551.5t228 551.5t558 225.5q305 0 515 -189.5t210 -463.5
q0 -230 -157 -403t-365 -173q-66 0 -98 59q-13 23 -16 48v0q-100 -107 -218 -107q-145 0 -239 106.5t-93 270.5q-1 200 131.5 344.5t316.5 144.5q141 -1 225 -124v0l21 95v0h199l-133 -596q-6 -25 -0.5 -42.5t18.5 -17.5zM1031 945q-96 0 -168 -84t-72 -196
q0 -86 43.5 -132.5t123.5 -46.5q81 0 146.5 64.5t87.5 165.5t-23 165t-138 64z" />
    <glyph glyph-name="A" unicode="A" horiz-adv-x="1479" 
d="M41 0l520 1470h178h178l521 -1470v0h-163h-163v0l-99 299v0h-558v0l-97 -299v0h-158h-159v0zM735 1143l-195 -591v0h391v0l-196 591v0v0z" />
    <glyph glyph-name="B" unicode="B" horiz-adv-x="1479" 
d="M156 0v1470v0h147v0h565q213 0 333 -98.5t120 -273.5q0 -183 -135 -278q-22 -16 -49 -29v0q52 -20 92 -48q141 -97 141 -283q0 -225 -139.5 -342.5t-407.5 -117.5h-520v0h-147v0zM450 1217v-323v0h351q115 0 172 43t57 130q0 75 -60 112.5t-181 37.5h-339v0zM450 647
v-392v0h373q120 0 180 52t60 157q0 92 -61.5 137.5t-184.5 45.5h-367v0z" />
    <glyph glyph-name="C" unicode="C" horiz-adv-x="1479" 
d="M1401 515v0q-28 -255 -199.5 -405t-436.5 -150q-310 0 -492.5 207t-182.5 560q0 360 182.5 571.5t492.5 211.5q262 0 434 -141.5t202 -383.5v0h-308v0q-15 119 -102.5 189t-222.5 70q-171 0 -268 -136.5t-97 -378.5q0 -236 96.5 -369.5t268.5 -133.5q135 0 222.5 78
t102.5 211v0h308z" />
    <glyph glyph-name="D" unicode="D" horiz-adv-x="1479" 
d="M156 0v1470v0h153v0h476q303 0 460.5 -178t157.5 -521q0 -378 -163.5 -574.5t-479.5 -196.5h-451v0h-153v0zM463 253v0h259q187 0 280.5 126.5t93.5 379.5q0 229 -87 343.5t-262 114.5h-284v0v-964z" />
    <glyph glyph-name="E" unicode="E" horiz-adv-x="1366" 
d="M156 0v0v1470v0h1082v0v-130v-131v0h-775v0v-312v0h719v-126v-127v0h-719v0v-383v0h809v0v-130v-131v0h-1116z" />
    <glyph glyph-name="F" unicode="F" horiz-adv-x="1251" 
d="M156 0v1470v0h1046v0v-130v-131v0h-739v0v-334v0h644v-126v-127v0h-644v0v-622h-153h-154z" />
    <glyph glyph-name="G" unicode="G" horiz-adv-x="1593" 
d="M788 -40q-321 0 -509.5 207t-188.5 560q0 360 196 571.5t530 211.5q268 0 441.5 -134t202.5 -362v0h-308v0q-12 96 -108 168.5t-212 72.5q-200 0 -313 -138.5t-113 -384.5q0 -250 108.5 -380.5t317.5 -130.5h-1q178 0 278 136q55 77 81 181v3v0h-346v253h616v-793h-205
l-30 190v0l-18 -24q-155 -207 -420 -207h1z" />
    <glyph glyph-name="H" unicode="H" horiz-adv-x="1479" 
d="M145 0v1470v0h153h154v0v-551v0h575v0v551v0h153h154v0v-1470v0h-153h-154v0v666v0h-575v0v-666v0h-153h-154v0z" />
    <glyph glyph-name="I" unicode="I" horiz-adv-x="569" 
d="M131 0v1470v0h153h154v0v-1470v0h-153h-154v0z" />
    <glyph glyph-name="J" unicode="J" 
d="M685 1470v0h153h154v0v-1057q0 -224 -120 -338.5t-354 -114.5q-249 0 -365 126t-108 389v88h292v-88q-4 -134 39.5 -198.5t138.5 -64.5q91 0 130.5 47t39.5 154v0v1057z" />
    <glyph glyph-name="K" unicode="K" horiz-adv-x="1479" 
d="M178 0v1470v0h153h154v0v-609v0l563 609v0h196h196v0l-587 -601v0l626 -869v0h-201h-201v0l-443 647v0l-149 -153v0v-494v0h-153h-154v0z" />
    <glyph glyph-name="L" unicode="L" horiz-adv-x="1251" 
d="M156 0v0v1470v0h153h154v0v-1209v0h731v0v-130v-131v0h-1038z" />
    <glyph glyph-name="M" unicode="M" horiz-adv-x="1706" 
d="M428 0v0h-143h-144v0v1470v0h225h225v0l268 -1165v0v0l264 1165v0h222h222v0v-1470v0h-143h-144v0v1236v0l-275 -1236h-151h-151l-275 1263v0v-1263z" />
    <glyph glyph-name="N" unicode="N" horiz-adv-x="1479" 
d="M428 0v0h-143h-144v0v1470v0h161h161v0l590 -1031v0v0v1031v0h143h144v0v-1470h-153h-153l-606 1059v0v0v-1059z" />
    <glyph glyph-name="O" unicode="O" horiz-adv-x="1593" 
d="M796 -40q-324 0 -515 207t-191 560q0 360 191 571.5t515 211.5q326 0 516.5 -211.5t190.5 -571.5q0 -353 -190.5 -560t-516.5 -207v0zM796 221q188 0 294 134.5t106 373.5q0 244 -106 382t-294 138q-187 0 -293 -138t-106 -382q0 -239 105.5 -373.5t293.5 -134.5v0z" />
    <glyph glyph-name="P" unicode="P" horiz-adv-x="1366" 
d="M156 0v1470v0h153v0h462q251 0 382 -117.5t131 -342.5q0 -238 -131 -361.5t-382 -123.5q-178 1 -308 -2v0v-523v0h-153h-154v0zM463 778v0h256q129 0 193.5 57t64.5 172q0 105 -64.5 157.5t-193.5 52.5h-256v0v-439z" />
    <glyph glyph-name="Q" unicode="Q" horiz-adv-x="1593" 
d="M1352 -107l-176 163v0q-158 -96 -380 -96q-324 0 -515 207t-191 560q0 360 191 571.5t515 211.5q326 0 516.5 -211.5t190.5 -571.5q0 -319 -155 -518v0l160 -150zM810 393l155 165l161 -147v0q70 124 70 318q0 244 -106 382t-294 138q-187 0 -293 -138t-106 -382
q0 -239 105.5 -373.5t293.5 -134.5q92 -1 165 33v0z" />
    <glyph glyph-name="R" unicode="R" horiz-adv-x="1479" 
d="M156 0v1470v0h153v0h588q210 0 338.5 -112.5t128.5 -296.5q0 -212 -143 -310q-38 -26 -86 -44v0q27 -11 49 -24q126 -75 131 -252l7 -241q2 -72 15 -102t50 -48v-39h-339q-12 23 -21 98.5t-10 162.5l-2 136q-2 99 -58.5 141t-187.5 42h-306v0v-581v0h-153h-154v0z
M463 828v0h356q119 0 178.5 48.5t59.5 146.5q0 97 -56.5 145.5t-169.5 48.5h-368v0v-389z" />
    <glyph glyph-name="S" unicode="S" horiz-adv-x="1366" 
d="M953 1029v0q-8 105 -92 166.5t-219 61.5q-117 0 -183 -51.5t-66 -143.5q0 -66 69 -102q68 -36 289 -85q321 -72 429 -166q108 -93 108 -299q0 -207 -163 -328.5t-441 -121.5q-279 0 -436 129t-168 367v0h296v0q5 -117 85 -180t223 -63q147 0 229.5 47.5t82.5 131.5
q0 83 -59 122q-58 39 -248 81q-350 78 -468 169q-117 90 -117 281q0 214 155 339.5t419 125.5q247 0 402 -130t172 -351v0h-299z" />
    <glyph glyph-name="T" unicode="T" horiz-adv-x="1251" 
d="M473 0v1209v0h-444v0v130v131v0h1195v0v-130v-131v0h-444v0v-1209v0h-153h-154v0z" />
    <glyph glyph-name="U" unicode="U" horiz-adv-x="1479" 
d="M1334 554q1 -315 -138.5 -454.5t-454.5 -139.5q-302 0 -447.5 145.5t-146.5 448.5v916v0h153h154v0v-926q0 -158 71.5 -237t215.5 -79q154 0 220 72.5t66 243.5v926v0h153h154v0v-916z" />
    <glyph glyph-name="V" unicode="V" horiz-adv-x="1366" 
d="M39 1470v0h163h163v0l323 -1123v0v0l322 1123v0h158h159v0l-498 -1470h-146h-146z" />
    <glyph glyph-name="W" unicode="W" horiz-adv-x="1933" 
d="M442 0l-409 1470v0h160h160v0l245 -1076v0v0l210 1076h163h164l213 -1067v0v0l244 1067v0h155h155v0l-409 -1470h-146h-146l-236 1157v0v0l-231 -1157h-146h-146z" />
    <glyph glyph-name="X" unicode="X" horiz-adv-x="1366" 
d="M29 0l476 744v0l-444 726v0h181h182v0l259 -475v0v0l268 475v0h177h177v0l-448 -703v0l480 -767v0h-183h-184v0l-288 506v0v0l-290 -506v0h-181h-182v0z" />
    <glyph glyph-name="Y" unicode="Y" horiz-adv-x="1366" 
d="M544 553v0l-513 917v0h182h183v0l306 -638v0l287 638v0h174h174v0l-486 -911v0v-559h-153h-154v553z" />
    <glyph glyph-name="Z" unicode="Z" horiz-adv-x="1251" 
d="M51 258l762 951v0h-737v0v130v131v0h1124v-121v-121l-776 -967v0h774v0v-130v-131v0h-1147v129v129z" />
    <glyph glyph-name="bracketleft" unicode="[" horiz-adv-x="682" 
d="M129 -405v1885v0h504v-197h-248v0v-1491v0h248v-197h-504v0z" />
    <glyph glyph-name="backslash" unicode="\" horiz-adv-x="569" 
d="M396 -40l-463 1550h240l463 -1550h-240z" />
    <glyph glyph-name="bracketright" unicode="]" horiz-adv-x="682" 
d="M553 -405v0h-504v197h248v0v1491v0h-248v197h504v0v-1885z" />
    <glyph glyph-name="asciicircum" unicode="^" horiz-adv-x="1196" 
d="M702 1427l367 -763h-228l-243 534v0l-243 -534h-228l367 763h104h104z" />
    <glyph glyph-name="underscore" unicode="_" 
d="M0 -256v105h1139v-105h-1139z" />
    <glyph glyph-name="grave" unicode="`" horiz-adv-x="682" 
d="M254 1238l-300 297h314l193 -297h-207z" />
    <glyph glyph-name="a" unicode="a" 
d="M394 -28q-151 0 -243 86.5t-92 227.5q0 149 83 238.5t242 112.5l189 26q74 10 123 34q21 10 32.5 36t8.5 53q-6 46 -47 72q-49 31 -141 31q-82 0 -128 -40t-49 -113v0h-275v0q9 191 130 286t355 95q203 0 320.5 -85.5t117.5 -233.5v-608q0 -73 12 -102.5t48 -46.5v-1v-39
h-155h-155v0q-19 66 -25 129l-1 2q-135 -160 -350 -160zM739 402v125v0q-50 -28 -132 -45l-106 -20q-75 -14 -114 -51.5t-39 -94.5q0 -65 35 -102t98 -37q138 0 220 97q16 19 27 56t11 72z" />
    <glyph glyph-name="b" unicode="b" horiz-adv-x="1251" 
d="M125 1470v0h143h144v0v-524v0l6 8q116 163 306 163q207 0 333 -153t126 -403q0 -265 -126 -427t-333 -162q-189 0 -306 152l-12 16v0v-140v0h-281v0v1470zM642 208q116 0 181 86.5t65 240.5q0 157 -65 245.5t-180 88.5t-180 -91t-65 -253v0v0v0q0 -149 65 -233
q64 -84 179 -84z" />
    <glyph glyph-name="c" unicode="c" 
d="M1073 403v0q-22 -203 -151 -317t-336 -114q-247 0 -381.5 147t-134.5 419q0 266 139.5 422.5t376.5 156.5q210 0 344 -116t143 -305v0h-292v0q-4 81 -57.5 131t-137.5 50q-108 0 -164.5 -86.5t-56.5 -252.5q0 -162 56.5 -246.5t164.5 -84.5q78 0 132 54t63 142v0h292z
" />
    <glyph glyph-name="d" unicode="d" horiz-adv-x="1251" 
d="M533 -28q-208 0 -335.5 162t-127.5 427q0 250 127 403t334 153q185 0 298 -156l12 -16v0v525v0h143h144v0v-1470v0h-139h-139v0v139v0l-5 -7q-119 -160 -312 -160zM610 869q-115 0 -180 -88.5t-65 -245.5q0 -154 64.5 -240.5t179.5 -86.5q116 0 181 91t65 253
q0 149 -65 233t-180 84z" />
    <glyph glyph-name="e" unicode="e" 
d="M564 -28q-248 0 -382.5 153t-134.5 436q0 261 137 408.5t380 147.5q249 0 383.5 -150.5t134.5 -428.5q2 -32 -5 -65v0h-741v0q10 -129 57 -193q60 -80 200 -80q65 0 120.5 37t66.5 89v0h292v0q-37 -166 -171.5 -260t-336.5 -94zM783 656v0q-10 98 -52 153q-55 73 -171 73
q-111 0 -169 -85q-36 -54 -52 -141v0h444z" />
    <glyph glyph-name="f" unicode="f" horiz-adv-x="682" 
d="M466 887v0v-887v0h-143h-144v0v887v0h-159v201h159v0v91q0 157 83.5 234t253.5 77q76 1 135 -7v-229h-91q-57 0 -75.5 -23t-18.5 -94v-49v0h185v-201h-185z" />
    <glyph glyph-name="g" unicode="g" horiz-adv-x="1251" 
d="M624 -226q121 0 174 58.5t53 193.5v134v0l-23 -35q-95 -131 -273 -131q-212 0 -342.5 152.5t-130.5 402.5q0 256 127 412t334 156q183 0 284 -133q19 -25 35 -55v0v159v0h270v-1030q0 -258 -127.5 -380.5t-397.5 -122.5q-222 0 -353 86.5t-140 239.5v0h312v0
q4 -56 51.5 -81.5t146.5 -25.5zM615 869q-112 0 -175 -85.5t-63 -237.5q0 -149 63 -232.5t174 -83.5q113 0 176.5 85t63.5 235t-63.5 234.5t-175.5 84.5z" />
    <glyph glyph-name="h" unicode="h" horiz-adv-x="1251" 
d="M133 0v1470v0h143h144v0v-520v0v0l23 32q106 135 308 135q172 0 269.5 -102t97.5 -283v-732v0h-143h-144v0v680q0 101 -43.5 149.5t-133.5 48.5q-113 0 -173.5 -68t-60.5 -196v0v-614v0h-143h-144v0z" />
    <glyph glyph-name="i" unicode="i" horiz-adv-x="569" 
d="M144 0v1088v0h143h144v0v-1088v0h-143h-144v0zM141 1481h292v-266h-292v266z" />
    <glyph glyph-name="j" unicode="j" horiz-adv-x="569" 
d="M139 1088v0h143h144v0v-1207q0 -177 -76.5 -248t-265.5 -71l-78 1v229l35 -1q58 0 78 18.5t20 71.5v0v1207zM137 1481h292v-266h-292v266z" />
    <glyph glyph-name="k" unicode="k" 
d="M141 0v1470v0h143h144v0v-794v0l358 412v0h177h177v0l-393 -412v0l403 -676v0h-170h-171v0l-262 468v0l-119 -125v0v-343v0h-143h-144v0z" />
    <glyph glyph-name="l" unicode="l" horiz-adv-x="569" 
d="M141 0v1470v0h143h144v0v-1470v0h-143h-144v0z" />
    <glyph glyph-name="m" unicode="m" horiz-adv-x="1821" 
d="M131 0v1088v0h136h137v0v-175v0v0q19 46 48 82q95 122 276 122q144 0 236 -97q36 -37 57 -82v0l35 57q89 122 259 122q177 0 277 -105t100 -291v-721v0h-143h-144v0v639q0 122 -40 180.5t-124 58.5q-90 0 -137.5 -55.5t-47.5 -159.5v0v-663v0h-143h-144v0v686
q0 98 -42 145t-129 47t-133.5 -55.5t-46.5 -159.5v0v-663v0h-143h-144v0z" />
    <glyph glyph-name="n" unicode="n" horiz-adv-x="1251" 
d="M133 0v1088v0h136h137v0v-161v0v0q17 29 37 55q106 135 308 135q172 0 269.5 -102t97.5 -283v-732v0h-143h-144v0v680q0 101 -43.5 149.5t-133.5 48.5q-113 0 -173.5 -68t-60.5 -196v0v-614v0h-143h-144v0z" />
    <glyph glyph-name="o" unicode="o" horiz-adv-x="1251" 
d="M626 -28q-255 0 -405.5 153t-150.5 413q0 266 150.5 422.5t405.5 156.5q257 0 407 -156.5t150 -422.5q0 -260 -150 -413t-407 -153v0zM626 212q128 0 195 84t67 245q0 165 -67 250.5t-195 85.5t-194.5 -85.5t-66.5 -250.5q0 -161 66.5 -245t194.5 -84v0z" />
    <glyph glyph-name="p" unicode="p" horiz-adv-x="1251" 
d="M127 1088v0h136h137v0v-161v0l19 27q116 163 306 163q207 0 332.5 -153t125.5 -403q0 -265 -125.5 -427t-332.5 -162q-189 0 -305 152l-6 8v0v-558v0h-143h-144v0v1514zM643 208q115 0 180 86.5t65 240.5q0 157 -64.5 245.5t-179.5 88.5t-179.5 -91t-64.5 -253v0v0v0
q0 -149 64.5 -233t178.5 -84z" />
    <glyph glyph-name="q" unicode="q" horiz-adv-x="1251" 
d="M534 -28q-208 0 -336 152.5t-128 402.5q0 266 132 428t348 162q177 0 285 -156q18 -25 31 -52v0v179v0h264v0v-1514v0h-143h-144v0v554v0q-117 -157 -309 -156zM611 869q-116 0 -181 -88.5t-65 -245.5q0 -154 65 -240.5t180 -86.5q116 0 181.5 91t65.5 253q0 149 -65 233
t-181 84z" />
    <glyph glyph-name="r" unicode="r" horiz-adv-x="797" 
d="M131 0v1088v0h136h137v0v-195v0v0q15 32 34 62q101 162 261 162l65 -1v-293q-38 4 -86 4q-131 0 -195.5 -65t-64.5 -197v0v-565v0h-143h-144v0z" />
    <glyph glyph-name="s" unicode="s" 
d="M749 762v0q0 63 -52 101t-138 38q-83 0 -129.5 -28.5t-46.5 -79.5q0 -36 53 -62q52 -25 185 -55q264 -59 353 -129t89 -220q0 -160 -129.5 -257.5t-341.5 -97.5q-251 0 -386.5 96t-144.5 280v0h292v0q3 -75 66.5 -117.5t172.5 -42.5q86 0 134.5 29.5t48.5 82.5
q0 37 -47 63q-47 25 -165 51q-276 62 -369 131q-93 68 -93 211q0 162 120.5 261.5t317.5 99.5q222 0 358 -97.5t136 -257.5v0h-284z" />
    <glyph glyph-name="t" unicode="t" horiz-adv-x="682" 
d="M633 -6q-72 -6 -177 -6q-152 0 -218.5 54.5t-66.5 178.5v666v0h-151v201h151v0v293h287v-293v0h175v-201h-175v0v-618q0 -38 22.5 -50t93.5 -12h59v-213z" />
    <glyph glyph-name="u" unicode="u" horiz-adv-x="1251" 
d="M422 1088v-681q0 -100 43 -148t132 -48q112 0 172 68t60 196v0v613v0h143h144v0v-1088v0h-136h-137v0v163v0v0q-15 -30 -36 -56q-106 -135 -307 -135q-172 0 -268.5 101.5t-96.5 281.5v733v0h143h144v0z" />
    <glyph glyph-name="v" unicode="v" 
d="M27 1088v0h158h159v0l232 -811v0v0l234 811v0h151h151v0l-393 -1088h-149h-150z" />
    <glyph glyph-name="w" unicode="w" horiz-adv-x="1593" 
d="M336 0l-316 1088v0h152h152v0l174 -799v0v0l163 799h143h144l161 -801v0v0l177 801v0h144h145v0l-315 -1088h-146h-147l-167 810v0v0l-171 -810h-146h-147z" />
    <glyph glyph-name="x" unicode="x" 
d="M31 0l370 556v0l-355 532v0h173h173v0l183 -321v0v0l183 321v0h167h168v0l-354 -537v0l369 -551v0h-176h-177v0l-189 332v0v0l-189 -332v0h-173h-173v0z" />
    <glyph glyph-name="y" unicode="y" 
d="M1104 1088l-390 -1111q-94 -275 -161 -345t-239 -70l-137 3v230q10 -4 55 -4q115 0 150 47q22 30 44 124v0l-406 1126v0h158h159v0l237 -807v0v0l230 807v0h150h150v0z" />
    <glyph glyph-name="z" unicode="z" horiz-adv-x="1024" 
d="M41 223l551 630l7 8v0h-517v0v113v114v0h876v-117v-118l-544 -618v0h569v0v-117v-118v0h-942v111v112z" />
    <glyph glyph-name="braceleft" unicode="{" horiz-adv-x="797" 
d="M748 -404q-238 -15 -348 63.5t-110 263.5v266q0 161 -30 201t-162 57v182q132 17 162 57t30 201v266q0 185 110 263.5t348 63.5v-184q-139 8 -171.5 -24.5t-32.5 -178.5v-266q0 -160 -96 -232q-44 -33 -121 -58v0q77 -22 121 -56q96 -72 96 -232v-266q0 -146 32.5 -178.5
t171.5 -24.5v-184z" />
    <glyph glyph-name="bar" unicode="|" horiz-adv-x="573" 
d="M172 -512v2048h229v-2048h-229z" />
    <glyph glyph-name="braceright" unicode="}" horiz-adv-x="797" 
d="M49 -404v184q139 -8 171.5 24.5t32.5 178.5v266q0 160 96 232q44 34 121 56v0q-77 25 -121 58q-96 72 -96 232v266q0 146 -32.5 178.5t-171.5 24.5v184q238 15 348 -63.5t110 -263.5v-266q0 -161 30 -201t162 -57v-182q-132 -17 -162 -57t-30 -201v-266q0 -185 -110 -264
q-110 -78 -348 -63z" />
    <glyph glyph-name="asciitilde" unicode="~" horiz-adv-x="1196" 
d="M125 515q35 82 104 130.5t151 48.5q52 0 111 -17.5t150 -60.5q62 -29 110 -46.5t67 -17.5q48 0 90.5 36t87.5 115l75 -182q-45 -82 -114 -130.5t-141 -48.5q-55 0 -113.5 20.5t-147.5 71.5q-41 23 -90.5 36.5t-93.5 13.5q-48 0 -97.5 -44t-73.5 -107z" />
    <glyph glyph-name="uni00A0" unicode="&#xa0;" horiz-adv-x="569" 
 />
    <glyph glyph-name="exclamdown" unicode="&#xa1;" horiz-adv-x="682" 
d="M417 681l83 -706v-357h-158h-158v357l82 706h76v0h75zM495 795h-306v289h306v-289z" />
    <glyph glyph-name="cent" unicode="&#xa2;" 
d="M733 1283h106l-54 -195q77 -30 139 -84q134 -118 149 -310v0h-292v0q-7 84 -61 136l-6 6l-174 -621l46 -3q79 0 132.5 49.5t62.5 130.5v0h292v0q-22 -197 -151 -308.5t-336 -111.5q-59 0 -111 8l-62 -221h-106l68 244q-100 36 -171 108q-134 139 -134 395
q0 295 134.5 455t381.5 160q52 1 99 -8zM448 264l172 614q-17 4 -34 3q-108 0 -164.5 -86t-56.5 -252v0q0 -162 57 -247z" />
    <glyph glyph-name="sterling" unicode="&#xa3;" 
d="M1118 67q-53 -45 -146 -76t-174 -31q-47 0 -106.5 13t-98.5 31q-41 19 -97.5 32.5t-98.5 13.5q-50 0 -113 -21.5t-104 -53.5l-113 198q106 61 168.5 140t62.5 154q0 48 -20 99q-13 34 -43 88h-178v125h110q-34 67 -48 114q-21 69 -21 164q0 191 132 303.5t357 112.5
q228 0 360 -127t129 -343v0h-276v0q2 110 -55 175t-155 65q-97 0 -154 -52t-57 -140q0 -33 15.5 -75t60.5 -131l32 -66h274v-125h-232q8 -45 8 -104q0 -139 -110 -263l-46 -47q101 22 183 22q32 0 70.5 -7.5t62.5 -18.5q31 -14 72 -23.5t70 -9.5q49 0 106 24t91 58z" />
    <glyph glyph-name="currency" unicode="&#xa4;" 
d="M795 735q0 95 -65.5 160.5t-160.5 65.5t-160.5 -65.5t-65.5 -160.5t65.5 -160.5t160.5 -65.5t160.5 65.5t65.5 160.5zM569 293q-134 1 -239 66v0l-198 -198l-137 137l199 199v0q-68 103 -67 238t67 239v0l-199 199l137 137l199 -199v0q104 66 238 66q135 0 238 -67v0
l200 200l137 -137l-200 -200v0q68 -104 67 -238q-1 -133 -65 -239v0l198 -198l-137 -137l-199 199v0q-105 -67 -239 -67z" />
    <glyph glyph-name="yen" unicode="&#xa5;" 
d="M31 709v125h269v0l-317 595v0h151h152v0l300 -600v0l282 600v0h144h144v0l-303 -595v0h257v-125h-320v0l-79 -154v0h399v-125h-410v0v-430v0h-130h-130v0v430v0h-409v125h409v0v16v0l-74 138v0h-335z" />
    <glyph glyph-name="brokenbar" unicode="&#xa6;" horiz-adv-x="573" 
d="M172 -342v684h229v-684h-229zM172 681v684h229v-684h-229z" />
    <glyph glyph-name="section" unicode="&#xa7;" 
d="M574 1495q191 0 303.5 -100.5t112.5 -272.5v0h-271v0q0 71 -39 112.5t-106 41.5q-72 0 -114.5 -35t-42.5 -94q0 -42 61.5 -89t190.5 -102q229 -99 314.5 -189t85.5 -231q0 -147 -135 -234q-29 -19 -63 -33l38 -35q101 -104 101 -226q0 -181 -117.5 -287.5t-317.5 -106.5
q-201 0 -318.5 108.5t-117.5 292.5v0h265v0q0 -84 46 -133t125 -49q76 0 120.5 39t44.5 106q0 45 -63.5 95t-196.5 110q-251 113 -330.5 197t-79.5 236q0 154 135 244q25 17 54 30l-3 2q-97 101 -97 225q0 174 112 276t303 102zM811 480q0 63 -56.5 112.5t-195.5 109.5
q-91 39 -160 81l-6 -4q-65 -40 -65 -109q0 -73 49 -116t217 -119q71 -32 129 -65l23 12q65 36 65 98z" />
    <glyph glyph-name="dieresis" unicode="&#xa8;" horiz-adv-x="682" 
d="M12 1492h258v-235h-258v235zM411 1492h258v-235h-258v235z" />
    <glyph glyph-name="copyright" unicode="&#xa9;" horiz-adv-x="1509" 
d="M755 1513q334 0 556 -221.5t222 -556.5q0 -334 -221.5 -555.5t-556.5 -221.5t-556 221.5t-221 555.5q0 335 221.5 556.5t555.5 221.5v0zM1309 735q0 255 -157.5 424.5t-396.5 169.5q-238 0 -395.5 -169.5t-157.5 -424.5t158 -424t395 -169q238 0 396 169t158 424v0z
M1152 617v0q-29 -150 -128.5 -237.5t-240.5 -87.5q-191 0 -307.5 120.5t-116.5 318.5q0 206 114.5 327t309.5 121q152 0 251.5 -85.5t117.5 -230.5v0h-183v0q-8 63 -58 100t-128 37q-100 0 -156.5 -71t-56.5 -197q0 -120 57.5 -190.5t155.5 -70.5q73 0 123 39.5t63 106.5v0
h183z" />
    <glyph glyph-name="ordfeminine" unicode="&#xaa;" horiz-adv-x="758" 
d="M264 823q-96 0 -157.5 51.5t-61.5 132.5q0 92 56.5 148t165.5 71l133 19q31 4 57 13q16 5 24.5 21t5.5 33q-4 22 -29 35q-31 17 -89 17q-55 0 -86 -21.5t-34 -61.5v0h-180v0q9 118 84.5 172.5t229.5 54.5q140 0 212 -48.5t72 -143.5v-303q0 -77 9 -106.5t35 -42.5v-1v-24
h-100h-101v0q-9 35 -15 79v0q-89 -95 -231 -95zM489 1091v63v0q-29 -11 -69 -20l-77 -15q-51 -10 -77.5 -34t-26.5 -61q0 -36 22.5 -57.5t59.5 -21.5q85 -1 140 59q12 13 20 38t8 49zM69 733h618v-164h-618v164z" />
    <glyph glyph-name="guillemotleft" unicode="&#xab;" 
d="M522 751l-206 -179v0l206 -178v-238l-342 297v120v120l342 297v-239zM959 751l-206 -179v0l206 -178v-238l-342 297v120v120l342 297v-239z" />
    <glyph glyph-name="logicalnot" unicode="&#xac;" horiz-adv-x="1196" 
d="M883 626h-801v236h1032v-644h-231v408z" />
    <glyph glyph-name="uni00AD" unicode="&#xad;" horiz-adv-x="682" 
d="M55 709h572v-270h-572v270z" />
    <glyph glyph-name="registered" unicode="&#xae;" horiz-adv-x="1509" 
d="M754 1512q334 0 555.5 -221.5t221.5 -555.5t-221 -555t-556 -221q-334 0 -555 221t-221 555t221.5 555.5t554.5 221.5v0zM1310 735q0 256 -158 426t-398 170q-239 0 -397 -170t-158 -426t158.5 -425.5t396.5 -169.5q239 0 397.5 169.5t158.5 425.5v0zM422 317v837v0h91v0
h234q160 0 243 -60.5t83 -177.5q0 -134 -77 -194q-43 -33 -114 -48v0l205 -357v0h-103h-104v0l-193 345v0h-82v0v-345v0h-91h-92v0zM605 806v0h142q72 0 107.5 27t35.5 81q0 49 -35.5 73t-107.5 24h-142v0v-205z" />
    <glyph glyph-name="macron" unicode="&#xaf;" horiz-adv-x="682" 
d="M-11 1235v152h704v-152h-704z" />
    <glyph glyph-name="degree" unicode="&#xb0;" horiz-adv-x="819" 
d="M409 1455q123 0 208 -85t85 -208t-85 -207.5t-208 -84.5t-207.5 84.5t-84.5 207.5t84.5 208t207.5 85zM586 1162q0 74 -51.5 125.5t-125.5 51.5t-125 -51.5t-51 -125.5t51 -125t125 -51t125.5 51t51.5 125z" />
    <glyph glyph-name="plusminus" unicode="&#xb1;" horiz-adv-x="1196" 
d="M480 548h-398v232h398v255h236v-255h398v-232h-398v-255h-236v255zM82 229h1032v-233h-1032v233z" />
    <glyph glyph-name="uni00B2" unicode="&#xb2;" horiz-adv-x="682" 
d="M664 1175q0 -97 -50.5 -164.5t-190.5 -156.5q-91 -57 -140 -107v0h381v-166h-646v0q0 117 63 202t237 203q82 56 115.5 101t33.5 101q0 47 -35.5 76t-93.5 29q-62 0 -96.5 -41t-32.5 -111v0h-179v0q-5 144 81 228.5t236 84.5q140 0 229 -78q88 -78 88 -201z" />
    <glyph glyph-name="uni00B3" unicode="&#xb3;" horiz-adv-x="682" 
d="M448 1192q0 47 -31 76t-82 29q-58 0 -89.5 -31.5t-32.5 -89.5v0h-177v0q2 133 83.5 205.5t229.5 72.5q128 0 209.5 -67.5t81.5 -174.5q0 -92 -85 -151l-37 -22v0q40 -13 69 -34q81 -57 81 -173q0 -121 -91.5 -198.5t-234.5 -77.5q-155 0 -239.5 74.5t-86.5 212.5v0h187v0
q1 -66 34.5 -100.5t96.5 -34.5q62 0 99.5 36t37.5 95q0 52 -40 84q-33 25 -83 30q-27 3 -52 3t-33 -2v133q10 -2 85 4q43 4 69 26q31 26 31 75z" />
    <glyph glyph-name="acute" unicode="&#xb4;" horiz-adv-x="682" 
d="M221 1238l193 297h314l-300 -297h-207z" />
    <glyph glyph-name="mu" unicode="&#xb5;" horiz-adv-x="1251" 
d="M422 1088v-661q0 -104 45.5 -160t129.5 -56q105 0 168.5 63.5t63.5 169.5v0v644h287v-1088h-273v164v0v0q-16 -35 -36 -66q-84 -126 -230 -126q-98 1 -155 54v0l1 -450h-287l-1 750v762h287z" />
    <glyph glyph-name="paragraph" unicode="&#xb6;" 
d="M443 709v0q-223 1 -340.5 93t-117.5 269t117 269.5t341 92.5h661v0v-1822h-234v1647v0h-198v0v-1647h-229v1098z" />
    <glyph glyph-name="periodcentered" unicode="&#xb7;" horiz-adv-x="569" 
d="M119 866h306v-298h-306v298z" />
    <glyph glyph-name="cedilla" unicode="&#xb8;" horiz-adv-x="682" 
d="M337 -1l-72 -109v0l57 6q81 0 130.5 -44t49.5 -116q0 -93 -69 -148t-186 -55q-56 0 -119.5 14.5t-115.5 39.5l45 96q50 -16 92 -24.5t66 -8.5q40 0 68 23t28 57q0 33 -22.5 53.5t-57.5 20.5q-16 0 -37.5 -4.5t-44.5 -12.5l-43 42l112 170h119z" />
    <glyph glyph-name="uni00B9" unicode="&#xb9;" horiz-adv-x="682" 
d="M280 581v593v0l-227 1v131q85 -7 155 32t110 116h169v0v-873v0h-103h-104v0z" />
    <glyph glyph-name="ordmasculine" unicode="&#xba;" horiz-adv-x="748" 
d="M375 823q-167 0 -265 92t-98 249q0 160 98 254t265 94t265 -94t98 -254q0 -157 -98 -249t-265 -92v0zM375 971q72 0 117.5 54.5t45.5 139.5q0 88 -45.5 143.5t-117.5 55.5t-117.5 -55.5t-45.5 -143.5q0 -85 45.5 -139.5t117.5 -54.5v0zM67 735h616v-166h-616v166z" />
    <glyph glyph-name="guillemotright" unicode="&#xbb;" 
d="M180 394l206 179v0l-206 178v238l342 -297v-120v-120l-342 -297v239zM617 394l206 179v0l-206 178v238l342 -297v-120v-120l-342 -297v239z" />
    <glyph glyph-name="onequarter" unicode="&#xbc;" horiz-adv-x="1708" 
d="M1280 1455l-873 -1499h-161l873 1499h161zM280 581v593v0l-227 1v131q85 -7 155 32t110 116h169v0v-873v0h-103h-104v0zM1262 190h-340v89v89l312 496h115h116v-510v0h104v-164h-104v0v-190h-203v190v0zM1262 354v0v313v0v0l-188 -299l-9 -14v0h197z" />
    <glyph glyph-name="onehalf" unicode="&#xbd;" horiz-adv-x="1708" 
d="M1303 1455l-873 -1499h-161l873 1499h161zM280 581v593v0l-227 1v131q85 -7 155 32t110 116h169v0v-873v0h-103h-104v0zM1626 594q0 -97 -50.5 -164.5t-190.5 -156.5q-91 -57 -140 -107v0h381v-166h-646v0q0 117 63 202t237 203q82 56 115.5 101t33.5 101q0 47 -35.5 76
t-93.5 29q-62 0 -96.5 -41t-32.5 -111v0h-179v0q-5 144 81 228.5t236 84.5q140 0 229 -78q88 -78 88 -201z" />
    <glyph glyph-name="threequarters" unicode="&#xbe;" horiz-adv-x="1708" 
d="M1352 1455l-873 -1499h-161l873 1499h161zM465 1192q0 47 -31 76t-82 29q-58 0 -89.5 -31.5t-32.5 -89.5v0h-177v0q2 133 83.5 205.5t229.5 72.5q128 0 209.5 -67.5t81.5 -174.5q0 -92 -85 -151l-37 -22v0q40 -13 69 -34q81 -57 81 -173q0 -121 -91.5 -198.5
t-234.5 -77.5q-155 0 -239.5 74.5t-86.5 212.5v0h187v0q1 -66 34.5 -100.5t96.5 -34.5q62 0 99.5 36t37.5 95q0 52 -40 84q-33 25 -83 30q-27 3 -52 3t-33 -2v133q10 -2 85 4q43 4 69 26q31 26 31 75zM1329 190h-340v89v89l312 496h115h116v-510v0h104v-164h-104v0v-190
h-203v190v0zM1329 354v0v313v0v0l-188 -299l-9 -14v0h197z" />
    <glyph glyph-name="questiondown" unicode="&#xbf;" horiz-adv-x="1251" 
d="M620 -161q110 0 164 61t56 188v0h288v0q-4 -231 -138.5 -361t-369.5 -130q-233 0 -370 117t-137 316q0 106 63.5 199.5t211.5 204.5q58 44 80.5 94.5t19.5 132.5h266q4 -141 -47 -238t-177 -185q-60 -42 -85 -89t-25 -119q0 -88 54 -140q54 -51 146 -51zM771 806h-300
v286h300v-286z" />
    <glyph glyph-name="Agrave" unicode="&#xc0;" horiz-adv-x="1479" 
d="M41 0l520 1470h178h178l521 -1470v0h-163h-163v0l-99 299v0h-558v0l-97 -299v0h-158h-159v0zM735 1143l-195 -591v0h391v0l-196 591v0v0zM664 1620l-300 297h314l193 -297h-207z" />
    <glyph glyph-name="Aacute" unicode="&#xc1;" horiz-adv-x="1479" 
d="M41 0l520 1470h178h178l521 -1470v0h-163h-163v0l-99 299v0h-558v0l-97 -299v0h-158h-159v0zM735 1143l-195 -591v0h391v0l-196 591v0v0zM617 1620l193 297h314l-300 -297h-207z" />
    <glyph glyph-name="Acircumflex" unicode="&#xc2;" horiz-adv-x="1479" 
d="M41 0l520 1470h178h178l521 -1470v0h-163h-163v0l-99 299v0h-558v0l-97 -299v0h-158h-159v0zM735 1143l-195 -591v0h391v0l-196 591v0v0zM867 1917l232 -297h-230l-130 167v0l-130 -167h-230l232 297h128h128z" />
    <glyph glyph-name="Atilde" unicode="&#xc3;" horiz-adv-x="1479" 
d="M41 0l520 1470h178h178l521 -1470v0h-163h-163v0l-99 299v0h-558v0l-97 -299v0h-158h-159v0zM735 1143l-195 -591v0h391v0l-196 591v0v0zM364 1633q17 116 83.5 184t164.5 68q21 0 67 -13t92 -32q30 -13 66.5 -21.5t58.5 -8.5q28 0 54 24.5t36 60.5h128
q-14 -116 -75 -184t-150 -68q-21 0 -74 13t-108 32q-37 13 -73 21.5t-52 8.5q-30 0 -56 -24.5t-34 -60.5h-128z" />
    <glyph glyph-name="Adieresis" unicode="&#xc4;" horiz-adv-x="1479" 
d="M41 0l520 1470h178h178l521 -1470v0h-163h-163v0l-99 299v0h-558v0l-97 -299v0h-158h-159v0zM735 1143l-195 -591v0h391v0l-196 591v0v0zM410 1874h258v-235h-258v235zM809 1874h258v-235h-258v235z" />
    <glyph glyph-name="Aring" unicode="&#xc5;" horiz-adv-x="1479" 
d="M41 0l520 1470h178h178l521 -1470v0h-163h-163v0l-99 299v0h-558v0l-97 -299v0h-158h-159v0zM735 1143l-195 -591v0h391v0l-196 591v0v0zM743 1544q-93 0 -157 62t-64 151t64 151t157 62t157 -62t64 -151t-64 -151t-157 -62v0zM743 1655q47 0 79 29.5t32 72.5t-32 72.5
t-79 29.5t-79 -29.5t-32 -72.5t32 -72.5t79 -29.5v0z" />
    <glyph glyph-name="AE" unicode="&#xc6;" horiz-adv-x="2048" 
d="M883 0v0v321v0h-442v0l-107 -321v0h-162h-162v0l536 1470v0h628v0h769v0v-130v-131v0h-769v0v-312v0h694v-126v-127v0h-694v0v-383v0h780v0v-130v-131v0h-780v0h-291zM743 1209l-219 -648v0h359v0v648h-140v0z" />
    <glyph glyph-name="Ccedilla" unicode="&#xc7;" horiz-adv-x="1479" 
d="M1401 515v0q-28 -255 -199.5 -405t-436.5 -150q-310 0 -492.5 207t-182.5 560q0 360 182.5 571.5t492.5 211.5q262 0 434 -141.5t202 -383.5v0h-308v0q-15 119 -102.5 189t-222.5 70q-171 0 -268 -136.5t-97 -378.5q0 -236 96.5 -369.5t268.5 -133.5q135 0 222.5 78
t102.5 211v0h308zM776 -1l-72 -110v0q47 8 57 7q81 0 130.5 -44t49.5 -116q0 -93 -69 -148t-186 -55q-55 0 -118.5 14.5t-116.5 39.5l45 96q51 -16 93 -24.5t65 -8.5q40 0 68 23t28 57q0 33 -22.5 53.5t-57.5 20.5q-17 0 -38.5 -4.5t-43.5 -12.5l-43 42l112 170h119z" />
    <glyph glyph-name="Egrave" unicode="&#xc8;" horiz-adv-x="1366" 
d="M156 0v0v1470v0h1082v0v-130v-131v0h-775v0v-312v0h719v-126v-127v0h-719v0v-383v0h809v0v-130v-131v0h-1116zM624 1620l-300 297h314l193 -297h-207z" />
    <glyph glyph-name="Eacute" unicode="&#xc9;" horiz-adv-x="1366" 
d="M156 0v0v1470v0h1082v0v-130v-131v0h-775v0v-312v0h719v-126v-127v0h-719v0v-383v0h809v0v-130v-131v0h-1116zM577 1620l193 297h314l-300 -297h-207z" />
    <glyph glyph-name="Ecircumflex" unicode="&#xca;" horiz-adv-x="1366" 
d="M156 0v0v1470v0h1082v0v-130v-131v0h-775v0v-312v0h719v-126v-127v0h-719v0v-383v0h809v0v-130v-131v0h-1116zM827 1917l232 -297h-230l-130 167v0l-130 -167h-230l232 297h128h128z" />
    <glyph glyph-name="Edieresis" unicode="&#xcb;" horiz-adv-x="1366" 
d="M156 0v0v1470v0h1082v0v-130v-131v0h-775v0v-312v0h719v-126v-127v0h-719v0v-383v0h809v0v-130v-131v0h-1116zM370 1874h258v-235h-258v235zM769 1874h258v-235h-258v235z" />
    <glyph glyph-name="Igrave" unicode="&#xcc;" horiz-adv-x="569" 
d="M121 0v1470v0h153h154v0v-1470v0h-153h-154v0zM199 1620l-300 297h314l193 -297h-207z" />
    <glyph glyph-name="Iacute" unicode="&#xcd;" horiz-adv-x="569" 
d="M131 0v1470v0h153h154v0v-1470v0h-153h-154v0zM162 1620l193 297h314l-300 -297h-207z" />
    <glyph glyph-name="Icircumflex" unicode="&#xce;" horiz-adv-x="569" 
d="M132 0v1470v0h153h154v0v-1470v0h-153h-154v0zM413 1917l232 -297h-230l-130 167v0l-130 -167h-230l232 297h128h128z" />
    <glyph glyph-name="Idieresis" unicode="&#xcf;" horiz-adv-x="569" 
d="M134 0v1470v0h153h154v0v-1470v0h-153h-154v0zM-42 1874h258v-235h-258v235zM357 1874h258v-235h-258v235z" />
    <glyph glyph-name="Eth" unicode="&#xd0;" horiz-adv-x="1479" 
d="M153 0v0v644v0h-162v255h162v0v571v0h153v0h478q304 0 462 -178t158 -521q0 -378 -164 -574.5t-481 -196.5h-453v0h-153zM460 1217v0v-318v0h338v-255h-338v0v-391v0h261q188 0 282 126.5t94 379.5q0 229 -87.5 343.5t-263.5 114.5h-286z" />
    <glyph glyph-name="Ntilde" unicode="&#xd1;" horiz-adv-x="1479" 
d="M428 0v0h-143h-144v0v1470v0h161h161v0l590 -1031v0v0v1031v0h143h144v0v-1470h-153h-153l-606 1059v0v0v-1059zM365 1633q17 116 83.5 184t164.5 68q21 0 67 -13t92 -32q30 -13 66.5 -21.5t58.5 -8.5q28 0 54 24.5t36 60.5h128q-14 -116 -75 -184t-150 -68q-21 0 -74 13
t-108 32q-37 13 -73 21.5t-52 8.5q-30 0 -56 -24.5t-34 -60.5h-128z" />
    <glyph glyph-name="Ograve" unicode="&#xd2;" horiz-adv-x="1593" 
d="M796 -40q-324 0 -515 207t-191 560q0 360 191 571.5t515 211.5q326 0 516.5 -211.5t190.5 -571.5q0 -353 -190.5 -560t-516.5 -207v0zM796 221q188 0 294 134.5t106 373.5q0 244 -106 382t-294 138q-187 0 -293 -138t-106 -382q0 -239 105.5 -373.5t293.5 -134.5v0z
M721 1620l-300 297h314l193 -297h-207z" />
    <glyph glyph-name="Oacute" unicode="&#xd3;" horiz-adv-x="1593" 
d="M796 -40q-324 0 -515 207t-191 560q0 360 191 571.5t515 211.5q326 0 516.5 -211.5t190.5 -571.5q0 -353 -190.5 -560t-516.5 -207v0zM796 221q188 0 294 134.5t106 373.5q0 244 -106 382t-294 138q-187 0 -293 -138t-106 -382q0 -239 105.5 -373.5t293.5 -134.5v0z
M674 1620l193 297h314l-300 -297h-207z" />
    <glyph glyph-name="Ocircumflex" unicode="&#xd4;" horiz-adv-x="1593" 
d="M796 -40q-324 0 -515 207t-191 560q0 360 191 571.5t515 211.5q326 0 516.5 -211.5t190.5 -571.5q0 -353 -190.5 -560t-516.5 -207v0zM796 221q188 0 294 134.5t106 373.5q0 244 -106 382t-294 138q-187 0 -293 -138t-106 -382q0 -239 105.5 -373.5t293.5 -134.5v0z
M924 1917l232 -297h-230l-130 167v0l-130 -167h-230l232 297h128h128z" />
    <glyph glyph-name="Otilde" unicode="&#xd5;" horiz-adv-x="1593" 
d="M796 -40q-324 0 -515 207t-191 560q0 360 191 571.5t515 211.5q326 0 516.5 -211.5t190.5 -571.5q0 -353 -190.5 -560t-516.5 -207v0zM796 221q188 0 294 134.5t106 373.5q0 244 -106 382t-294 138q-187 0 -293 -138t-106 -382q0 -239 105.5 -373.5t293.5 -134.5v0z
M421 1633q17 116 83.5 184t164.5 68q21 0 67 -13t92 -32q30 -13 66.5 -21.5t58.5 -8.5q28 0 54 24.5t36 60.5h128q-14 -116 -75 -184t-150 -68q-21 0 -74 13t-108 32q-37 13 -73 21.5t-52 8.5q-30 0 -56 -24.5t-34 -60.5h-128z" />
    <glyph glyph-name="Odieresis" unicode="&#xd6;" horiz-adv-x="1593" 
d="M796 -40q-324 0 -515 207t-191 560q0 360 191 571.5t515 211.5q326 0 516.5 -211.5t190.5 -571.5q0 -353 -190.5 -560t-516.5 -207v0zM796 221q188 0 294 134.5t106 373.5q0 244 -106 382t-294 138q-187 0 -293 -138t-106 -382q0 -239 105.5 -373.5t293.5 -134.5v0z
M467 1874h258v-235h-258v235zM866 1874h258v-235h-258v235z" />
    <glyph glyph-name="multiply" unicode="&#xd7;" horiz-adv-x="1196" 
d="M598 353l-350 -350l-166 166l350 350l-350 350l166 166l350 -350l350 350l166 -166l-350 -350l350 -350l-166 -166z" />
    <glyph glyph-name="Oslash" unicode="&#xd8;" horiz-adv-x="1593" 
d="M795 650l-281 -310q103 -119 281 -119v0q188 0 294 134.5t106 373.5q1 179 -57 299zM795 -40q-289 1 -476 165l-167 -184l-84 79l174 192q-153 198 -153 515q0 360 191 571.5t515 211.5q290 0 474 -168l169 187l84 -79l-176 -193q156 -203 156 -530q0 -353 -190.5 -560
t-516.5 -207v0zM795 1249q-187 0 -293 -138t-106 -382q1 -170 54 -289l345 380l280 309q-104 120 -280 120z" />
    <glyph glyph-name="Ugrave" unicode="&#xd9;" horiz-adv-x="1479" 
d="M1334 554q1 -315 -138.5 -454.5t-454.5 -139.5q-302 0 -447.5 145.5t-146.5 448.5v916v0h153h154v0v-926q0 -158 71.5 -237t215.5 -79q154 0 220 72.5t66 243.5v926v0h153h154v0v-916zM665 1620l-300 297h314l193 -297h-207z" />
    <glyph glyph-name="Uacute" unicode="&#xda;" horiz-adv-x="1479" 
d="M1334 554q1 -315 -138.5 -454.5t-454.5 -139.5q-302 0 -447.5 145.5t-146.5 448.5v916v0h153h154v0v-926q0 -158 71.5 -237t215.5 -79q154 0 220 72.5t66 243.5v926v0h153h154v0v-916zM618 1620l193 297h314l-300 -297h-207z" />
    <glyph glyph-name="Ucircumflex" unicode="&#xdb;" horiz-adv-x="1479" 
d="M1334 554q1 -315 -138.5 -454.5t-454.5 -139.5q-302 0 -447.5 145.5t-146.5 448.5v916v0h153h154v0v-926q0 -158 71.5 -237t215.5 -79q154 0 220 72.5t66 243.5v926v0h153h154v0v-916zM868 1917l232 -297h-230l-130 167v0l-130 -167h-230l232 297h128h128z" />
    <glyph glyph-name="Udieresis" unicode="&#xdc;" horiz-adv-x="1479" 
d="M1334 554q1 -315 -138.5 -454.5t-454.5 -139.5q-302 0 -447.5 145.5t-146.5 448.5v916v0h153h154v0v-926q0 -158 71.5 -237t215.5 -79q154 0 220 72.5t66 243.5v926v0h153h154v0v-916zM411 1874h258v-235h-258v235zM810 1874h258v-235h-258v235z" />
    <glyph glyph-name="Yacute" unicode="&#xdd;" horiz-adv-x="1366" 
d="M544 553v0l-513 917v0h182h183v0l306 -638v0l287 638v0h174h174v0l-486 -911v0v-559h-153h-154v553zM562 1620l193 297h314l-300 -297h-207z" />
    <glyph glyph-name="Thorn" unicode="&#xde;" horiz-adv-x="1366" 
d="M156 0v1470v0h153h154v0v-199v0h339q222 0 352 -128t130 -347q0 -214 -130 -339.5t-352 -125.5h-339v0v-331v0h-153h-154v0zM977 798q0 110 -61.5 165t-185.5 55h-267v0v-434v0h267q124 0 186 54q61 53 61 160z" />
    <glyph glyph-name="germandbls" unicode="&#xdf;" horiz-adv-x="1251" 
d="M428 1040v-1040v0h-143h-144v0v1040v42q0 198 125.5 308.5t350.5 110.5q218 0 351.5 -103.5t133.5 -272.5q0 -175 -139 -288l66 -40q156 -106 156 -303q0 -256 -129 -389t-378 -133q-27 0 -55.5 3.5t-48.5 8.5v0v224v0q-14 4 71 4q124 0 189 65t65 190q0 123 -78.5 184
t-236.5 61v199q125 0 180 42t55 136q0 81 -58 130.5t-153 49.5q-94 0 -137 -55q-43 -54 -43 -174z" />
    <glyph glyph-name="agrave" unicode="&#xe0;" 
d="M394 -28q-151 0 -243 86.5t-92 227.5q0 149 83 238.5t242 112.5l189 26q74 10 123 34q21 10 32.5 36t8.5 53q-6 46 -47 72q-49 31 -141 31q-82 0 -128 -40t-49 -113v0h-275v0q9 191 130 286t355 95q203 0 320.5 -85.5t117.5 -233.5v-608q0 -73 12 -102.5t48 -46.5v-1v-39
h-155h-155v0q-19 66 -25 129l-1 2q-135 -160 -350 -160zM739 402v125v0q-50 -28 -132 -45l-106 -20q-75 -14 -114 -51.5t-39 -94.5q0 -65 35 -102t98 -37q138 0 220 97q16 19 27 56t11 72zM493 1238l-300 297h314l193 -297h-207z" />
    <glyph glyph-name="aacute" unicode="&#xe1;" 
d="M394 -28q-151 0 -243 86.5t-92 227.5q0 149 83 238.5t242 112.5l189 26q74 10 123 34q21 10 32.5 36t8.5 53q-6 46 -47 72q-49 31 -141 31q-82 0 -128 -40t-49 -113v0h-275v0q9 191 130 286t355 95q203 0 320.5 -85.5t117.5 -233.5v-608q0 -73 12 -102.5t48 -46.5v-1v-39
h-155h-155v0q-19 66 -25 129l-1 2q-135 -160 -350 -160zM739 402v125v0q-50 -28 -132 -45l-106 -20q-75 -14 -114 -51.5t-39 -94.5q0 -65 35 -102t98 -37q138 0 220 97q16 19 27 56t11 72zM446 1238l193 297h314l-300 -297h-207z" />
    <glyph glyph-name="acircumflex" unicode="&#xe2;" 
d="M394 -28q-151 0 -243 86.5t-92 227.5q0 149 83 238.5t242 112.5l189 26q74 10 123 34q21 10 32.5 36t8.5 53q-6 46 -47 72q-49 31 -141 31q-82 0 -128 -40t-49 -113v0h-275v0q9 191 130 286t355 95q203 0 320.5 -85.5t117.5 -233.5v-608q0 -73 12 -102.5t48 -46.5v-1v-39
h-155h-155v0q-19 66 -25 129l-1 2q-135 -160 -350 -160zM739 402v125v0q-50 -28 -132 -45l-106 -20q-75 -14 -114 -51.5t-39 -94.5q0 -65 35 -102t98 -37q138 0 220 97q16 19 27 56t11 72zM696 1535l232 -297h-230l-130 167v0l-130 -167h-230l232 297h128h128z" />
    <glyph glyph-name="atilde" unicode="&#xe3;" 
d="M394 -28q-151 0 -243 86.5t-92 227.5q0 149 83 238.5t242 112.5l189 26q74 10 123 34q21 10 32.5 36t8.5 53q-6 46 -47 72q-49 31 -141 31q-82 0 -128 -40t-49 -113v0h-275v0q9 191 130 286t355 95q203 0 320.5 -85.5t117.5 -233.5v-608q0 -73 12 -102.5t48 -46.5v-1v-39
h-155h-155v0q-19 66 -25 129l-1 2q-135 -160 -350 -160zM739 402v125v0q-50 -28 -132 -45l-106 -20q-75 -14 -114 -51.5t-39 -94.5q0 -65 35 -102t98 -37q138 0 220 97q16 19 27 56t11 72zM193 1251q17 116 83.5 184t164.5 68q21 0 67 -13t92 -32q30 -13 66.5 -21.5
t58.5 -8.5q28 0 54 24.5t36 60.5h128q-14 -116 -75 -184t-150 -68q-21 0 -74 13t-108 32q-37 13 -73 21.5t-52 8.5q-30 0 -56 -24.5t-34 -60.5h-128z" />
    <glyph glyph-name="adieresis" unicode="&#xe4;" 
d="M394 -28q-151 0 -243 86.5t-92 227.5q0 149 83 238.5t242 112.5l189 26q74 10 123 34q21 10 32.5 36t8.5 53q-6 46 -47 72q-49 31 -141 31q-82 0 -128 -40t-49 -113v0h-275v0q9 191 130 286t355 95q203 0 320.5 -85.5t117.5 -233.5v-608q0 -73 12 -102.5t48 -46.5v-1v-39
h-155h-155v0q-19 66 -25 129l-1 2q-135 -160 -350 -160zM739 402v125v0q-50 -28 -132 -45l-106 -20q-75 -14 -114 -51.5t-39 -94.5q0 -65 35 -102t98 -37q138 0 220 97q16 19 27 56t11 72zM239 1492h258v-235h-258v235zM638 1492h258v-235h-258v235z" />
    <glyph glyph-name="aring" unicode="&#xe5;" 
d="M394 -28q-151 0 -243 86.5t-92 227.5q0 149 83 238.5t242 112.5l189 26q74 10 123 34q21 10 32.5 36t8.5 53q-6 46 -47 72q-49 31 -141 31q-82 0 -128 -40t-49 -113v0h-275v0q9 191 130 286t355 95q203 0 320.5 -85.5t117.5 -233.5v-608q0 -73 12 -102.5t48 -46.5v-1v-39
h-155h-155v0q-19 66 -25 129l-1 2q-135 -160 -350 -160zM739 402v125v0q-50 -28 -132 -45l-106 -20q-75 -14 -114 -51.5t-39 -94.5q0 -65 35 -102t98 -37q138 0 220 97q16 19 27 56t11 72zM572 1162q-93 0 -157 62t-64 151t64 151t157 62t157 -62t64 -151t-64 -151t-157 -62
v0zM572 1273q47 0 79 29.5t32 72.5t-32 72.5t-79 29.5t-79 -29.5t-32 -72.5t32 -72.5t79 -29.5v0z" />
    <glyph glyph-name="ae" unicode="&#xe6;" horiz-adv-x="1821" 
d="M571 1117q199 0 315 -86q23 -16 40 -35v0q134 121 325 121q244 0 375.5 -150.5t131.5 -428.5q2 -32 -5 -65v0h-735v0q10 -129 56 -193q59 -80 198 -80q64 0 118.5 37t65.5 89v0h292v0q-37 -166 -169 -260t-328 -94q-243 0 -375 153l-15 18v0l-9 -11q-140 -160 -408 -160
q-173 0 -279 86.5t-106 227.5q0 152 74.5 229.5t248.5 107.5l194 34l119 23q23 4 38.5 23t15.5 42v21q0 60 -50 91.5t-144 31.5q-85 0 -133 -40t-51 -113v0h-275v0q9 191 127.5 286t347.5 95zM749 409v111v0q-55 -25 -133 -43l-111 -24q-85 -19 -121 -50.5t-36 -86.5
q0 -65 35.5 -102t98.5 -37q149 0 233 111l2 3q13 21 22 55q10 34 10 63zM1459 656v0q-10 98 -51 153q-55 73 -169 73q-110 0 -167 -85q-36 -54 -50 -141v0h437z" />
    <glyph glyph-name="ccedilla" unicode="&#xe7;" 
d="M1073 403v0q-22 -203 -151 -317t-336 -114q-247 0 -381.5 147t-134.5 419q0 266 139.5 422.5t376.5 156.5q210 0 344 -116t143 -305v0h-292v0q-4 81 -57.5 131t-137.5 50q-108 0 -164.5 -86.5t-56.5 -252.5q0 -162 56.5 -246.5t164.5 -84.5q78 0 132 54t63 142v0h292z
M612 -1l-72 -109v0l57 6q81 0 130.5 -44t49.5 -116q0 -93 -69 -148t-186 -55q-56 0 -119.5 14.5t-115.5 39.5l45 96q50 -16 92 -24.5t66 -8.5q40 0 68 23t28 57q0 33 -22.5 53.5t-57.5 20.5q-16 0 -37.5 -4.5t-44.5 -12.5l-43 42l112 170h119z" />
    <glyph glyph-name="egrave" unicode="&#xe8;" 
d="M564 -28q-248 0 -382.5 153t-134.5 436q0 261 137 408.5t380 147.5q249 0 383.5 -150.5t134.5 -428.5q2 -32 -5 -65v0h-741v0q10 -129 57 -193q60 -80 200 -80q65 0 120.5 37t66.5 89v0h292v0q-37 -166 -171.5 -260t-336.5 -94zM783 656v0q-10 98 -52 153q-55 73 -171 73
q-111 0 -169 -85q-36 -54 -52 -141v0h444zM510 1238l-300 297h314l193 -297h-207z" />
    <glyph glyph-name="eacute" unicode="&#xe9;" 
d="M564 -28q-248 0 -382.5 153t-134.5 436q0 261 137 408.5t380 147.5q249 0 383.5 -150.5t134.5 -428.5q2 -32 -5 -65v0h-741v0q10 -129 57 -193q60 -80 200 -80q65 0 120.5 37t66.5 89v0h292v0q-37 -166 -171.5 -260t-336.5 -94zM783 656v0q-10 98 -52 153q-55 73 -171 73
q-111 0 -169 -85q-36 -54 -52 -141v0h444zM463 1238l193 297h314l-300 -297h-207z" />
    <glyph glyph-name="ecircumflex" unicode="&#xea;" 
d="M564 -28q-248 0 -382.5 153t-134.5 436q0 261 137 408.5t380 147.5q249 0 383.5 -150.5t134.5 -428.5q2 -32 -5 -65v0h-741v0q10 -129 57 -193q60 -80 200 -80q65 0 120.5 37t66.5 89v0h292v0q-37 -166 -171.5 -260t-336.5 -94zM783 656v0q-10 98 -52 153q-55 73 -171 73
q-111 0 -169 -85q-36 -54 -52 -141v0h444zM713 1535l232 -297h-230l-130 167v0l-130 -167h-230l232 297h128h128z" />
    <glyph glyph-name="edieresis" unicode="&#xeb;" 
d="M564 -28q-248 0 -382.5 153t-134.5 436q0 261 137 408.5t380 147.5q249 0 383.5 -150.5t134.5 -428.5q2 -32 -5 -65v0h-741v0q10 -129 57 -193q60 -80 200 -80q65 0 120.5 37t66.5 89v0h292v0q-37 -166 -171.5 -260t-336.5 -94zM783 656v0q-10 98 -52 153q-55 73 -171 73
q-111 0 -169 -85q-36 -54 -52 -141v0h444zM256 1492h258v-235h-258v235zM655 1492h258v-235h-258v235z" />
    <glyph glyph-name="igrave" unicode="&#xec;" horiz-adv-x="569" 
d="M131 0v1088v0h143h144v0v-1088v0h-143h-144v0zM199 1238l-300 297h314l193 -297h-207z" />
    <glyph glyph-name="iacute" unicode="&#xed;" horiz-adv-x="569" 
d="M141 0v1088v0h143h144v0v-1088v0h-143h-144v0zM162 1238l193 297h314l-300 -297h-207z" />
    <glyph glyph-name="icircumflex" unicode="&#xee;" horiz-adv-x="569" 
d="M142 0v1088v0h143h144v0v-1088v0h-143h-144v0zM413 1535l232 -297h-230l-130 167v0l-130 -167h-230l232 297h128h128z" />
    <glyph glyph-name="idieresis" unicode="&#xef;" horiz-adv-x="569" 
d="M144 0v1088v0h143h144v0v-1088v0h-143h-144v0zM-42 1492h258v-235h-258v235zM357 1492h258v-235h-258v235z" />
    <glyph glyph-name="eth" unicode="&#xf0;" horiz-adv-x="1251" 
d="M626 -28q-255 0 -405.5 145.5t-150.5 393.5q0 253 141.5 402t381.5 149q135 1 237 -99v0q-25 55 -57 102q-50 76 -124 144l-229 -101l-128 106l229 101q-73 51 -157 97l217 102q87 -47 161 -102l207 91l122 -108l-201 -89q90 -87 157 -188q156 -236 156 -512
q0 -304 -144.5 -469t-412.5 -165zM365 513q0 -141 69 -221t192 -80t192.5 80t69.5 221q0 145 -69.5 227t-192.5 82t-192 -82t-69 -227z" />
    <glyph glyph-name="ntilde" unicode="&#xf1;" horiz-adv-x="1251" 
d="M133 0v1088v0h136h137v0v-161v0v0q17 29 37 55q106 135 308 135q172 0 269.5 -102t97.5 -283v-732v0h-143h-144v0v680q0 101 -43.5 149.5t-133.5 48.5q-113 0 -173.5 -68t-60.5 -196v0v-614v0h-143h-144v0zM250 1251q17 116 83.5 184t164.5 68q21 0 67 -13t92 -32
q30 -13 66.5 -21.5t58.5 -8.5q28 0 54 24.5t36 60.5h128q-14 -116 -75 -184t-150 -68q-21 0 -74 13t-108 32q-37 13 -73 21.5t-52 8.5q-30 0 -56 -24.5t-34 -60.5h-128z" />
    <glyph glyph-name="ograve" unicode="&#xf2;" horiz-adv-x="1251" 
d="M626 -28q-255 0 -405.5 153t-150.5 413q0 266 150.5 422.5t405.5 156.5q257 0 407 -156.5t150 -422.5q0 -260 -150 -413t-407 -153v0zM626 212q128 0 195 84t67 245q0 165 -67 250.5t-195 85.5t-194.5 -85.5t-66.5 -250.5q0 -161 66.5 -245t194.5 -84v0zM551 1238
l-300 297h314l193 -297h-207z" />
    <glyph glyph-name="oacute" unicode="&#xf3;" horiz-adv-x="1251" 
d="M626 -28q-255 0 -405.5 153t-150.5 413q0 266 150.5 422.5t405.5 156.5q257 0 407 -156.5t150 -422.5q0 -260 -150 -413t-407 -153v0zM626 212q128 0 195 84t67 245q0 165 -67 250.5t-195 85.5t-194.5 -85.5t-66.5 -250.5q0 -161 66.5 -245t194.5 -84v0zM504 1238
l193 297h314l-300 -297h-207z" />
    <glyph glyph-name="ocircumflex" unicode="&#xf4;" horiz-adv-x="1251" 
d="M626 -28q-255 0 -405.5 153t-150.5 413q0 266 150.5 422.5t405.5 156.5q257 0 407 -156.5t150 -422.5q0 -260 -150 -413t-407 -153v0zM626 212q128 0 195 84t67 245q0 165 -67 250.5t-195 85.5t-194.5 -85.5t-66.5 -250.5q0 -161 66.5 -245t194.5 -84v0zM754 1535
l232 -297h-230l-130 167v0l-130 -167h-230l232 297h128h128z" />
    <glyph glyph-name="otilde" unicode="&#xf5;" horiz-adv-x="1251" 
d="M626 -28q-255 0 -405.5 153t-150.5 413q0 266 150.5 422.5t405.5 156.5q257 0 407 -156.5t150 -422.5q0 -260 -150 -413t-407 -153v0zM626 212q128 0 195 84t67 245q0 165 -67 250.5t-195 85.5t-194.5 -85.5t-66.5 -250.5q0 -161 66.5 -245t194.5 -84v0zM251 1251
q17 116 83.5 184t164.5 68q21 0 67 -13t92 -32q30 -13 66.5 -21.5t58.5 -8.5q28 0 54 24.5t36 60.5h128q-14 -116 -75 -184t-150 -68q-21 0 -74 13t-108 32q-37 13 -73 21.5t-52 8.5q-30 0 -56 -24.5t-34 -60.5h-128z" />
    <glyph glyph-name="odieresis" unicode="&#xf6;" horiz-adv-x="1251" 
d="M626 -28q-255 0 -405.5 153t-150.5 413q0 266 150.5 422.5t405.5 156.5q257 0 407 -156.5t150 -422.5q0 -260 -150 -413t-407 -153v0zM626 212q128 0 195 84t67 245q0 165 -67 250.5t-195 85.5t-194.5 -85.5t-66.5 -250.5q0 -161 66.5 -245t194.5 -84v0zM297 1492h258
v-235h-258v235zM696 1492h258v-235h-258v235z" />
    <glyph glyph-name="divide" unicode="&#xf7;" horiz-adv-x="1196" 
d="M598 274q76 0 129 -53t53 -129t-53 -129t-129 -53t-129 53t-53 129t53 129t129 53zM82 638h1032v-238h-1032v238zM598 1128q76 0 129 -53t53 -129t-53 -129t-129 -53t-129 53t-53 129t53 129t129 53z" />
    <glyph glyph-name="oslash" unicode="&#xf8;" horiz-adv-x="1251" 
d="M625 472l-183 -190q67 -69 183 -70v0q128 0 195 84t67 245q0 103 -26 177zM625 -28q-223 1 -368 117l-137 -143l-75 60l145 151q-121 148 -121 381q0 266 150.5 422.5t405.5 156.5q226 0 369 -121l140 146l71 -66l-142 -148q118 -151 119 -390q0 -260 -150 -413
t-407 -153v0zM625 877q-128 0 -194.5 -85.5t-66.5 -250.5q0 -102 27 -174l234 244l185 193q-66 73 -185 73z" />
    <glyph glyph-name="ugrave" unicode="&#xf9;" horiz-adv-x="1251" 
d="M422 1088v-681q0 -100 43 -148t132 -48q112 0 172 68t60 196v0v613v0h143h144v0v-1088v0h-136h-137v0v163v0v0q-15 -30 -36 -56q-106 -135 -307 -135q-172 0 -268.5 101.5t-96.5 281.5v733v0h143h144v0zM550 1238l-300 297h314l193 -297h-207z" />
    <glyph glyph-name="uacute" unicode="&#xfa;" horiz-adv-x="1251" 
d="M422 1088v-681q0 -100 43 -148t132 -48q112 0 172 68t60 196v0v613v0h143h144v0v-1088v0h-136h-137v0v163v0v0q-15 -30 -36 -56q-106 -135 -307 -135q-172 0 -268.5 101.5t-96.5 281.5v733v0h143h144v0zM503 1238l193 297h314l-300 -297h-207z" />
    <glyph glyph-name="ucircumflex" unicode="&#xfb;" horiz-adv-x="1251" 
d="M422 1088v-681q0 -100 43 -148t132 -48q112 0 172 68t60 196v0v613v0h143h144v0v-1088v0h-136h-137v0v163v0v0q-15 -30 -36 -56q-106 -135 -307 -135q-172 0 -268.5 101.5t-96.5 281.5v733v0h143h144v0zM753 1535l232 -297h-230l-130 167v0l-130 -167h-230l232 297h128
h128z" />
    <glyph glyph-name="udieresis" unicode="&#xfc;" horiz-adv-x="1251" 
d="M422 1088v-681q0 -100 43 -148t132 -48q112 0 172 68t60 196v0v613v0h143h144v0v-1088v0h-136h-137v0v163v0v0q-15 -30 -36 -56q-106 -135 -307 -135q-172 0 -268.5 101.5t-96.5 281.5v733v0h143h144v0zM296 1492h258v-235h-258v235zM695 1492h258v-235h-258v235z" />
    <glyph glyph-name="yacute" unicode="&#xfd;" 
d="M1104 1088l-390 -1111q-94 -275 -161 -345t-239 -70l-137 3v230q10 -4 55 -4q115 0 150 47q22 30 44 124v0l-406 1126v0h158h159v0l237 -807v0v0l230 807v0h150h150v0zM440 1238l193 297h314l-300 -297h-207z" />
    <glyph glyph-name="thorn" unicode="&#xfe;" horiz-adv-x="1251" 
d="M127 1470v0h143h144v0v-523v0l5 7q116 163 306 163q207 0 332.5 -153t125.5 -403q0 -265 -125.5 -427t-332.5 -162q-189 0 -305 152l-6 8v0v-558v0h-143h-144v0v1896zM643 208q115 0 180 86.5t65 240.5q0 157 -64.5 245.5t-179.5 88.5t-179.5 -91t-64.5 -253v0v0v0
q0 -149 64.5 -233t178.5 -84z" />
    <glyph glyph-name="ydieresis" unicode="&#xff;" 
d="M1104 1088l-390 -1111q-94 -275 -161 -345t-239 -70l-137 3v230q10 -4 55 -4q115 0 150 47q22 30 44 124v0l-406 1126v0h158h159v0l237 -807v0v0l230 807v0h150h150v0zM233 1492h258v-235h-258v235zM632 1492h258v-235h-258v235z" />
    <glyph glyph-name="Amacron" unicode="&#x100;" horiz-adv-x="1479" 
d="M41 0l520 1470h178h178l521 -1470v0h-163h-163v0l-99 299v0h-558v0l-97 -299v0h-158h-159v0zM735 1143l-195 -591v0h391v0l-196 591v0v0zM417 1806h644v-162h-644v162z" />
    <glyph glyph-name="amacron" unicode="&#x101;" 
d="M394 -28q-151 0 -243 86.5t-92 227.5q0 149 83 238.5t242 112.5l189 26q74 10 123 34q21 10 32.5 36t8.5 53q-6 46 -47 72q-49 31 -141 31q-82 0 -128 -40t-49 -113v0h-275v0q9 191 130 286t355 95q203 0 320.5 -85.5t117.5 -233.5v-608q0 -73 12 -102.5t48 -46.5v-1v-39
h-155h-155v0q-19 66 -25 129l-1 2q-135 -160 -350 -160zM739 402v125v0q-50 -28 -132 -45l-106 -20q-75 -14 -114 -51.5t-39 -94.5q0 -65 35 -102t98 -37q138 0 220 97q16 19 27 56t11 72zM246 1424h644v-162h-644v162z" />
    <glyph glyph-name="Abreve" unicode="&#x102;" horiz-adv-x="1479" 
d="M41 0l520 1470h178h178l521 -1470v0h-163h-163v0l-99 299v0h-558v0l-97 -299v0h-158h-159v0zM735 1143l-195 -591v0h391v0l-196 591v0v0zM745 1620q-149 0 -227 72t-98 229h136q10 -77 57.5 -111.5t145.5 -34.5q108 0 159 34.5t58 111.5h136q-24 -157 -112.5 -229
t-254.5 -72z" />
    <glyph glyph-name="abreve" unicode="&#x103;" 
d="M394 -28q-151 0 -243 86.5t-92 227.5q0 149 83 238.5t242 112.5l189 26q74 10 123 34q21 10 32.5 36t8.5 53q-6 46 -47 72q-49 31 -141 31q-82 0 -128 -40t-49 -113v0h-275v0q9 191 130 286t355 95q203 0 320.5 -85.5t117.5 -233.5v-608q0 -73 12 -102.5t48 -46.5v-1v-39
h-155h-155v0q-19 66 -25 129l-1 2q-135 -160 -350 -160zM739 402v125v0q-50 -28 -132 -45l-106 -20q-75 -14 -114 -51.5t-39 -94.5q0 -65 35 -102t98 -37q138 0 220 97q16 19 27 56t11 72zM574 1238q-149 0 -227 72t-98 229h136q10 -77 57.5 -111.5t145.5 -34.5
q108 0 159 34.5t58 111.5h136q-24 -157 -112.5 -229t-254.5 -72z" />
    <glyph glyph-name="Aogonek" unicode="&#x104;" horiz-adv-x="1479" 
d="M41 0l520 1470h178h178l521 -1470v0h-163h-163v0l-99 299v0h-558v0l-97 -299v0h-158h-159v0zM735 1143l-195 -591v0h391v0l-196 591v0v0zM864 -275q0 90 63 165.5t166 108.5h178q-102 -60 -157.5 -126t-55.5 -128q0 -43 26 -70t67 -27q38 0 78.5 9.5t74.5 25.5l38 -102
q-55 -21 -117 -34t-108 -13q-109 0 -181 55q-72 54 -72 136z" />
    <glyph glyph-name="aogonek" unicode="&#x105;" 
d="M394 -28q-151 0 -243 86.5t-92 227.5q0 149 83 238.5t242 112.5l189 26q74 10 123 34q21 10 32.5 36t8.5 53q-6 46 -47 72q-49 31 -141 31q-82 0 -128 -40t-49 -113v0h-275v0q9 191 130 286t355 95q203 0 320.5 -85.5t117.5 -233.5v-608q0 -73 12 -102.5t48 -46.5v-1v-39
h-155h-155v0q-19 66 -25 129l-1 2q-135 -160 -350 -160zM739 402v125v0q-50 -28 -132 -45l-106 -20q-75 -14 -114 -51.5t-39 -94.5q0 -65 35 -102t98 -37q138 0 220 97q16 19 27 56t11 72zM547 -275q0 90 63 165.5t166 108.5h178q-102 -60 -157.5 -126t-55.5 -128
q0 -43 26 -70t67 -27q38 0 78.5 9.5t74.5 25.5l38 -102q-55 -21 -117 -34t-108 -13q-109 0 -181 55q-72 54 -72 136z" />
    <glyph glyph-name="Cacute" unicode="&#x106;" horiz-adv-x="1479" 
d="M1401 515v0q-28 -255 -199.5 -405t-436.5 -150q-310 0 -492.5 207t-182.5 560q0 360 182.5 571.5t492.5 211.5q262 0 434 -141.5t202 -383.5v0h-308v0q-15 119 -102.5 189t-222.5 70q-171 0 -268 -136.5t-97 -378.5q0 -236 96.5 -369.5t268.5 -133.5q135 0 222.5 78
t102.5 211v0h308zM643 1620l193 297h314l-300 -297h-207z" />
    <glyph glyph-name="cacute" unicode="&#x107;" 
d="M1073 403v0q-22 -203 -151 -317t-336 -114q-247 0 -381.5 147t-134.5 419q0 266 139.5 422.5t376.5 156.5q210 0 344 -116t143 -305v0h-292v0q-4 81 -57.5 131t-137.5 50q-108 0 -164.5 -86.5t-56.5 -252.5q0 -162 56.5 -246.5t164.5 -84.5q78 0 132 54t63 142v0h292z
M464 1238l193 297h314l-300 -297h-207z" />
    <glyph glyph-name="Ccaron" unicode="&#x10c;" horiz-adv-x="1479" 
d="M1401 515v0q-28 -255 -199.5 -405t-436.5 -150q-310 0 -492.5 207t-182.5 560q0 360 182.5 571.5t492.5 211.5q262 0 434 -141.5t202 -383.5v0h-308v0q-15 119 -102.5 189t-222.5 70q-171 0 -268 -136.5t-97 -378.5q0 -236 96.5 -369.5t268.5 -133.5q135 0 222.5 78
t102.5 211v0h308zM630 1621l-232 297h230l130 -167v0l130 167h230l-232 -297h-128h-128z" />
    <glyph glyph-name="ccaron" unicode="&#x10d;" 
d="M1073 403v0q-22 -203 -151 -317t-336 -114q-247 0 -381.5 147t-134.5 419q0 266 139.5 422.5t376.5 156.5q210 0 344 -116t143 -305v0h-292v0q-4 81 -57.5 131t-137.5 50q-108 0 -164.5 -86.5t-56.5 -252.5q0 -162 56.5 -246.5t164.5 -84.5q78 0 132 54t63 142v0h292z
M458 1239l-232 297h230l130 -167v0l130 167h230l-232 -297h-128h-128z" />
    <glyph glyph-name="Dcaron" unicode="&#x10e;" horiz-adv-x="1479" 
d="M156 0v1470v0h153v0h476q303 0 460.5 -178t157.5 -521q0 -378 -163.5 -574.5t-479.5 -196.5h-451v0h-153v0zM463 253v0h259q187 0 280.5 126.5t93.5 379.5q0 229 -87 343.5t-262 114.5h-284v0v-964zM557 1621l-232 297h230l130 -167v0l130 167h230l-232 -297h-128h-128z
" />
    <glyph glyph-name="dcaron" unicode="&#x10f;" horiz-adv-x="1472" 
d="M544 -28q-208 0 -335.5 162t-127.5 427q0 250 127 403t334 153q185 0 298 -156l12 -16v0v525v0h143h144v0v-1470v0h-139h-139v0v139v0l-5 -7q-119 -160 -312 -160zM621 869q-115 0 -180 -88.5t-65 -245.5q0 -154 64.5 -240.5t179.5 -86.5q116 0 181 91t65 253
q0 149 -65 233t-180 84zM1267 1337v133h121h121v-204q0 -166 -62 -258.5t-192 -119.5v0v82v0q78 24 105 89q20 47 24 144v0h-44h-73v134z" />
    <glyph glyph-name="Dcroat" unicode="&#x110;" horiz-adv-x="1479" 
d="M153 0v0v644v0h-162v255h162v0v571v0h153v0h478q304 0 462 -178t158 -521q0 -378 -164 -574.5t-481 -196.5h-453v0h-153zM460 1217v0v-318v0h338v-255h-338v0v-391v0h261q188 0 282 126.5t94 379.5q0 229 -87.5 343.5t-263.5 114.5h-286z" />
    <glyph glyph-name="dcroat" unicode="&#x111;" horiz-adv-x="1251" 
d="M533 -28q-208 0 -335.5 162t-127.5 427q0 250 120 403t315 153q197 0 317 -156l19 -25v0v247h-295v204h295v83v0h143h144v0v-83h126v-204h-126v-1183v0h-143h-144v0v128v0q-116 -155 -308 -156zM610 869q-115 0 -180 -88.5t-65 -245.5q0 -154 64.5 -240.5t179.5 -86.5
q116 0 181 91t65 253q0 149 -65 233t-180 84z" />
    <glyph glyph-name="Emacron" unicode="&#x112;" horiz-adv-x="1366" 
d="M156 0v0v1470v0h1082v0v-130v-131v0h-775v0v-312v0h719v-126v-127v0h-719v0v-383v0h809v0v-130v-131v0h-1116zM377 1806h644v-162h-644v162z" />
    <glyph glyph-name="emacron" unicode="&#x113;" 
d="M564 -28q-248 0 -382.5 153t-134.5 436q0 261 137 408.5t380 147.5q249 0 383.5 -150.5t134.5 -428.5q2 -32 -5 -65v0h-741v0q10 -129 57 -193q60 -80 200 -80q65 0 120.5 37t66.5 89v0h292v0q-37 -166 -171.5 -260t-336.5 -94zM783 656v0q-10 98 -52 153q-55 73 -171 73
q-111 0 -169 -85q-36 -54 -52 -141v0h444zM263 1424h644v-162h-644v162z" />
    <glyph glyph-name="Edotaccent" unicode="&#x116;" horiz-adv-x="1366" 
d="M156 0v0v1470v0h1082v0v-130v-131v0h-775v0v-312v0h719v-126v-127v0h-719v0v-383v0h809v0v-130v-131v0h-1116zM570 1875h258v-236h-258v236z" />
    <glyph glyph-name="edotaccent" unicode="&#x117;" 
d="M564 -28q-248 0 -382.5 153t-134.5 436q0 261 137 408.5t380 147.5q249 0 383.5 -150.5t134.5 -428.5q2 -32 -5 -65v0h-741v0q10 -129 57 -193q60 -80 200 -80q65 0 120.5 37t66.5 89v0h292v0q-37 -166 -171.5 -260t-336.5 -94zM783 656v0q-10 98 -52 153q-55 73 -171 73
q-111 0 -169 -85q-36 -54 -52 -141v0h444zM456 1493h258v-236h-258v236z" />
    <glyph glyph-name="Eogonek" unicode="&#x118;" horiz-adv-x="1366" 
d="M156 0v0v1470v0h1082v0v-130v-131v0h-775v0v-312v0h719v-126v-127v0h-719v0v-383v0h809v0v-130v-131v0h-1116zM801 -275q0 90 63 165.5t166 108.5h178q-102 -60 -157.5 -126t-55.5 -128q0 -43 26 -70t67 -27q38 0 78.5 9.5t74.5 25.5l38 -102q-55 -21 -117 -34t-108 -13
q-109 0 -181 55q-72 54 -72 136z" />
    <glyph glyph-name="eogonek" unicode="&#x119;" 
d="M564 -28q-248 0 -382.5 153t-134.5 436q0 261 137 408.5t380 147.5q249 0 383.5 -150.5t134.5 -428.5q2 -32 -5 -65v0h-741v0q10 -129 57 -193q60 -80 200 -80q65 0 120.5 37t66.5 89v0h292v0q-37 -166 -171.5 -260t-336.5 -94zM783 656v0q-10 98 -52 153q-55 73 -171 73
q-111 0 -169 -85q-36 -54 -52 -141v0h444zM328 -275q0 90 63 165.5t166 108.5h178q-102 -60 -157.5 -126t-55.5 -128q0 -43 26 -70t67 -27q38 0 78.5 9.5t74.5 25.5l38 -102q-55 -21 -117 -34t-108 -13q-109 0 -181 55q-72 54 -72 136z" />
    <glyph glyph-name="Ecaron" unicode="&#x11a;" horiz-adv-x="1366" 
d="M156 0v0v1470v0h1082v0v-130v-131v0h-775v0v-312v0h719v-126v-127v0h-719v0v-383v0h809v0v-130v-131v0h-1116zM564 1621l-232 297h230l130 -167v0l130 167h230l-232 -297h-128h-128z" />
    <glyph glyph-name="ecaron" unicode="&#x11b;" 
d="M564 -28q-248 0 -382.5 153t-134.5 436q0 261 137 408.5t380 147.5q249 0 383.5 -150.5t134.5 -428.5q2 -32 -5 -65v0h-741v0q10 -129 57 -193q60 -80 200 -80q65 0 120.5 37t66.5 89v0h292v0q-37 -166 -171.5 -260t-336.5 -94zM783 656v0q-10 98 -52 153q-55 73 -171 73
q-111 0 -169 -85q-36 -54 -52 -141v0h444zM457 1239l-232 297h230l130 -167v0l130 167h230l-232 -297h-128h-128z" />
    <glyph glyph-name="Gbreve" unicode="&#x11e;" horiz-adv-x="1593" 
d="M788 -40q-321 0 -509.5 207t-188.5 560q0 360 196 571.5t530 211.5q268 0 441.5 -134t202.5 -362v0h-308v0q-12 96 -108 168.5t-212 72.5q-200 0 -313 -138.5t-113 -384.5q0 -250 108.5 -380.5t317.5 -130.5h-1q178 0 278 136q55 77 81 181v3v0h-346v253h616v-793h-205
l-30 190v0l-18 -24q-155 -207 -420 -207h1zM822 1620q-149 0 -227 72t-98 229h136q10 -77 57.5 -111.5t145.5 -34.5q108 0 159 34.5t58 111.5h136q-24 -157 -112.5 -229t-254.5 -72z" />
    <glyph glyph-name="gbreve" unicode="&#x11f;" horiz-adv-x="1251" 
d="M624 -226q121 0 174 58.5t53 193.5v134v0l-23 -35q-95 -131 -273 -131q-212 0 -342.5 152.5t-130.5 402.5q0 256 127 412t334 156q183 0 284 -133q19 -25 35 -55v0v159v0h270v-1030q0 -258 -127.5 -380.5t-397.5 -122.5q-222 0 -353 86.5t-140 239.5v0h312v0
q4 -56 51.5 -81.5t146.5 -25.5zM615 869q-112 0 -175 -85.5t-63 -237.5q0 -149 63 -232.5t174 -83.5q113 0 176.5 85t63.5 235t-63.5 234.5t-175.5 84.5zM549 1238q-149 0 -227 72t-98 229h136q10 -77 57.5 -111.5t145.5 -34.5q108 0 159 34.5t58 111.5h136
q-24 -157 -112.5 -229t-254.5 -72z" />
    <glyph glyph-name="uni0122" unicode="&#x122;" horiz-adv-x="1593" 
d="M788 -40q-321 0 -509.5 207t-188.5 560q0 360 196 571.5t530 211.5q268 0 441.5 -134t202.5 -362v0h-308v0q-12 96 -108 168.5t-212 72.5q-200 0 -313 -138.5t-113 -384.5q0 -250 108.5 -380.5t317.5 -130.5h-1q178 0 278 136q55 77 81 181v3v0h-346v253h616v-793h-205
l-30 190v0l-18 -24q-155 -207 -420 -207h1zM663 -282v133h121h121v-204q0 -166 -62 -258.5t-192 -119.5v0v82v0q78 24 105 89q20 47 24 144v0h-44h-73v134z" />
    <glyph glyph-name="uni0123" unicode="&#x123;" horiz-adv-x="1251" 
d="M624 -226q121 0 174 58.5t53 193.5v134v0l-23 -35q-95 -131 -273 -131q-212 0 -342.5 152.5t-130.5 402.5q0 256 127 412t334 156q183 0 284 -133q19 -25 35 -55v0v159v0h270v-1030q0 -258 -127.5 -380.5t-397.5 -122.5q-222 0 -353 86.5t-140 239.5v0h312v0
q4 -56 51.5 -81.5t146.5 -25.5zM615 869q-112 0 -175 -85.5t-63 -237.5q0 -149 63 -232.5t174 -83.5q113 0 176.5 85t63.5 235t-63.5 234.5t-175.5 84.5zM658 1371v-133h-121h-121v204q0 166 62 258.5t192 119.5v0v-82v0q-78 -24 -105 -89q-20 -47 -24 -144v0h44h73v-134z
" />
    <glyph glyph-name="Imacron" unicode="&#x12a;" horiz-adv-x="569" 
d="M135 0v1470v0h153h154v0v-1470v0h-153h-154v0zM-34 1806h644v-162h-644v162z" />
    <glyph glyph-name="imacron" unicode="&#x12b;" horiz-adv-x="569" 
d="M145 0v1088v0h143h144v0v-1088v0h-143h-144v0zM-34 1424h644v-162h-644v162z" />
    <glyph glyph-name="Iogonek" unicode="&#x12e;" horiz-adv-x="569" 
d="M135 0v1470v0h153h154v0v-1470v0h-153h-154v0zM40 -275q0 90 63 165.5t166 108.5h178q-102 -60 -157.5 -126t-55.5 -128q0 -43 26 -70t67 -27q38 0 78.5 9.5t74.5 25.5l38 -102q-55 -21 -117 -34t-108 -13q-109 0 -181 55q-72 54 -72 136z" />
    <glyph glyph-name="iogonek" unicode="&#x12f;" horiz-adv-x="569" 
d="M131 0v1088v0h143h144v0v-1088v0h-143h-144v0zM128 1481h292v-266h-292v266zM-33 -275q0 90 63 165.5t166 108.5h178q-102 -60 -157.5 -126t-55.5 -128q0 -43 26 -70t67 -27q38 0 78.5 9.5t74.5 25.5l38 -102q-55 -21 -117 -34t-108 -13q-109 0 -181 55q-72 54 -72 136z
" />
    <glyph glyph-name="Idotaccent" unicode="&#x130;" horiz-adv-x="569" 
d="M131 0v1470v0h153h154v0v-1470v0h-153h-154v0zM155 1875h258v-236h-258v236z" />
    <glyph glyph-name="dotlessi" unicode="&#x131;" horiz-adv-x="569" 
d="M141 0v1088v0h143h144v0v-1088v0h-143h-144v0z" />
    <glyph glyph-name="uni0136" unicode="&#x136;" horiz-adv-x="1479" 
d="M178 0v1470v0h153h154v0v-609v0l563 609v0h196h196v0l-587 -601v0l626 -869v0h-201h-201v0l-443 647v0l-149 -153v0v-494v0h-153h-154v0zM656 -282v133h121h121v-204q0 -166 -62 -258.5t-192 -119.5v0v82v0q78 24 105 89q20 47 24 144v0h-44h-73v134z" />
    <glyph glyph-name="uni0137" unicode="&#x137;" 
d="M141 0v1470v0h143h144v0v-794v0l358 412v0h177h177v0l-393 -412v0l403 -676v0h-170h-171v0l-262 468v0l-119 -125v0v-343v0h-143h-144v0zM493 -282v133h121h121v-204q0 -166 -62 -258.5t-192 -119.5v0v82v0q78 24 105 89q20 47 24 144v0h-44h-73v134z" />
    <glyph glyph-name="Lacute" unicode="&#x139;" horiz-adv-x="1251" 
d="M156 0v0v1470v0h153h154v0v-1209v0h731v0v-130v-131v0h-1038zM187 1620l193 297h314l-300 -297h-207z" />
    <glyph glyph-name="lacute" unicode="&#x13a;" horiz-adv-x="569" 
d="M141 0v1470v0h143h144v0v-1470v0h-143h-144v0zM162 1620l193 297h314l-300 -297h-207z" />
    <glyph glyph-name="uni013B" unicode="&#x13b;" horiz-adv-x="1251" 
d="M156 0v0v1470v0h153h154v0v-1209v0h731v0v-130v-131v0h-1038zM550 -282v133h121h121v-204q0 -166 -62 -258.5t-192 -119.5v0v82v0q78 24 105 89q20 47 24 144v0h-44h-73v134z" />
    <glyph glyph-name="uni013C" unicode="&#x13c;" horiz-adv-x="569" 
d="M141 0v1470v0h143h144v0v-1470v0h-143h-144v0zM159 -282v133h121h121v-204q0 -166 -62 -258.5t-192 -119.5v0v82v0q78 24 105 89q20 47 24 144v0h-44h-73v134z" />
    <glyph glyph-name="Lcaron" unicode="&#x13d;" horiz-adv-x="1251" 
d="M156 0v0v1470v0h153h154v0v-1209v0h731v0v-130v-131v0h-1038zM753 1337v133h121h121v-204q0 -166 -62 -258.5t-192 -119.5v0v82v0q78 24 105 89q20 47 24 144v0h-44h-73v134z" />
    <glyph glyph-name="lcaron" unicode="&#x13e;" horiz-adv-x="853" 
d="M211 0v1470v0h143h144v0v-1470v0h-143h-144v0zM625 1337v133h121h121v-204q0 -166 -62 -258.5t-192 -119.5v0v82v0q78 24 105 89q20 47 24 144v0h-44h-73v134z" />
    <glyph glyph-name="Lslash" unicode="&#x141;" horiz-adv-x="1251" 
d="M150 0v0v636l-180 -93v160l180 93v674v0h153h154v0v-515l255 132v-160l-255 -132v-534v0h731v0v-130v-131v0h-1038z" />
    <glyph glyph-name="lslash" unicode="&#x142;" horiz-adv-x="569" 
d="M149 0v659l-179 -98v159l179 98v652v0h143h144v0v-495l177 97v-159l-177 -97v-816v0h-143h-144v0z" />
    <glyph glyph-name="Nacute" unicode="&#x143;" horiz-adv-x="1479" 
d="M428 0v0h-143h-144v0v1470v0h161h161v0l590 -1031v0v0v1031v0h143h144v0v-1470h-153h-153l-606 1059v0v0v-1059zM618 1620l193 297h314l-300 -297h-207z" />
    <glyph glyph-name="nacute" unicode="&#x144;" horiz-adv-x="1251" 
d="M133 0v1088v0h136h137v0v-161v0v0q17 29 37 55q106 135 308 135q172 0 269.5 -102t97.5 -283v-732v0h-143h-144v0v680q0 101 -43.5 149.5t-133.5 48.5q-113 0 -173.5 -68t-60.5 -196v0v-614v0h-143h-144v0zM503 1238l193 297h314l-300 -297h-207z" />
    <glyph glyph-name="uni0145" unicode="&#x145;" horiz-adv-x="1479" 
d="M428 0v0h-143h-144v0v1470v0h161h161v0l590 -1031v0v0v1031v0h143h144v0v-1470h-153h-153l-606 1059v0v0v-1059zM615 -282v133h121h121v-204q0 -166 -62 -258.5t-192 -119.5v0v82v0q78 24 105 89q20 47 24 144v0h-44h-73v134z" />
    <glyph glyph-name="uni0146" unicode="&#x146;" horiz-adv-x="1251" 
d="M133 0v1088v0h136h137v0v-161v0v0q17 29 37 55q106 135 308 135q172 0 269.5 -102t97.5 -283v-732v0h-143h-144v0v680q0 101 -43.5 149.5t-133.5 48.5q-113 0 -173.5 -68t-60.5 -196v0v-614v0h-143h-144v0zM500 -282v133h121h121v-204q0 -166 -62 -258.5t-192 -119.5v0
v82v0q78 24 105 89q20 47 24 144v0h-44h-73v134z" />
    <glyph glyph-name="Ncaron" unicode="&#x147;" horiz-adv-x="1479" 
d="M428 0v0h-143h-144v0v1470v0h161h161v0l590 -1031v0v0v1031v0h143h144v0v-1470h-153h-153l-606 1059v0v0v-1059zM605 1621l-232 297h230l130 -167v0l130 167h230l-232 -297h-128h-128z" />
    <glyph glyph-name="ncaron" unicode="&#x148;" horiz-adv-x="1251" 
d="M133 0v1088v0h136h137v0v-161v0v0q17 29 37 55q106 135 308 135q172 0 269.5 -102t97.5 -283v-732v0h-143h-144v0v680q0 101 -43.5 149.5t-133.5 48.5q-113 0 -173.5 -68t-60.5 -196v0v-614v0h-143h-144v0zM497 1239l-232 297h230l130 -167v0l130 167h230l-232 -297h-128
h-128z" />
    <glyph glyph-name="Omacron" unicode="&#x14c;" horiz-adv-x="1593" 
d="M796 -40q-324 0 -515 207t-191 560q0 360 191 571.5t515 211.5q326 0 516.5 -211.5t190.5 -571.5q0 -353 -190.5 -560t-516.5 -207v0zM796 221q188 0 294 134.5t106 373.5q0 244 -106 382t-294 138q-187 0 -293 -138t-106 -382q0 -239 105.5 -373.5t293.5 -134.5v0z
M474 1806h644v-162h-644v162z" />
    <glyph glyph-name="omacron" unicode="&#x14d;" horiz-adv-x="1251" 
d="M626 -28q-255 0 -405.5 153t-150.5 413q0 266 150.5 422.5t405.5 156.5q257 0 407 -156.5t150 -422.5q0 -260 -150 -413t-407 -153v0zM626 212q128 0 195 84t67 245q0 165 -67 250.5t-195 85.5t-194.5 -85.5t-66.5 -250.5q0 -161 66.5 -245t194.5 -84v0zM304 1424h644
v-162h-644v162z" />
    <glyph glyph-name="Ohungarumlaut" unicode="&#x150;" horiz-adv-x="1593" 
d="M796 -40q-324 0 -515 207t-191 560q0 360 191 571.5t515 211.5q326 0 516.5 -211.5t190.5 -571.5q0 -353 -190.5 -560t-516.5 -207v0zM796 221q188 0 294 134.5t106 373.5q0 244 -106 382t-294 138q-187 0 -293 -138t-106 -382q0 -239 105.5 -373.5t293.5 -134.5v0z
M398 1575l193 297h314l-300 -297h-207zM869 1575l193 297h314l-300 -297h-207z" />
    <glyph glyph-name="ohungarumlaut" unicode="&#x151;" horiz-adv-x="1251" 
d="M626 -28q-255 0 -405.5 153t-150.5 413q0 266 150.5 422.5t405.5 156.5q257 0 407 -156.5t150 -422.5q0 -260 -150 -413t-407 -153v0zM626 212q128 0 195 84t67 245q0 165 -67 250.5t-195 85.5t-194.5 -85.5t-66.5 -250.5q0 -161 66.5 -245t194.5 -84v0zM228 1238
l193 297h314l-300 -297h-207zM699 1238l193 297h314l-300 -297h-207z" />
    <glyph glyph-name="OE" unicode="&#x152;" horiz-adv-x="2048" 
d="M679 1506q200 0 319 -109v0v73h291v0h669v0v-130v-131v0h-669v0v-312v0h640v-126v-127v0h-640v0v-383v0h679v0v-130v-131v0h-679v0h-291v70v0q-120 -104 -319 -105q-283 0 -443 202t-160 560q0 366 160 573q160 206 443 206zM732 1256q-174 0 -261 -139t-88 -418
q0 -232 90.5 -358t258.5 -126q117 0 198 66q29 23 49 75q19 51 19 103v550q0 53 -19 105t-46 75q-80 67 -201 67z" />
    <glyph glyph-name="oe" unicode="&#x153;" horiz-adv-x="1933" 
d="M603 1117q232 -1 373 -139v0q137 138 373 139q249 0 383.5 -150.5t134.5 -428.5q2 -32 -5 -65v0h-724v0q10 -129 58 -193q60 -80 202 -80q57 0 106.5 37t60.5 89v0h292v0q-37 -166 -171.5 -260t-336.5 -94q-236 -1 -370 139v0q-142 -140 -376 -139q-245 0 -389 153
t-144 413q0 266 144 423q144 156 389 156zM614 877q-122 0 -185.5 -85.5t-63.5 -250.5q0 -161 63.5 -245t185.5 -84t185.5 84t63.5 245q0 165 -64 251q-63 85 -185 85zM1589 656v0q-10 98 -52 153q-56 73 -173 73q-112 0 -171 -85q-37 -54 -51 -141v0h447z" />
    <glyph glyph-name="Racute" unicode="&#x154;" horiz-adv-x="1479" 
d="M156 0v1470v0h153v0h588q210 0 338.5 -112.5t128.5 -296.5q0 -212 -143 -310q-38 -26 -86 -44v0q27 -11 49 -24q126 -75 131 -252l7 -241q2 -72 15 -102t50 -48v-39h-339q-12 23 -21 98.5t-10 162.5l-2 136q-2 99 -58.5 141t-187.5 42h-306v0v-581v0h-153h-154v0z
M463 828v0h356q119 0 178.5 48.5t59.5 146.5q0 97 -56.5 145.5t-169.5 48.5h-368v0v-389zM578 1620l193 297h314l-300 -297h-207z" />
    <glyph glyph-name="racute" unicode="&#x155;" horiz-adv-x="797" 
d="M131 0v1088v0h136h137v0v-195v0v0q15 32 34 62q101 162 261 162l65 -1v-293q-38 4 -86 4q-131 0 -195.5 -65t-64.5 -197v0v-565v0h-143h-144v0zM325 1238l193 297h314l-300 -297h-207z" />
    <glyph glyph-name="uni0156" unicode="&#x156;" horiz-adv-x="1479" 
d="M156 0v1470v0h153v0h588q210 0 338.5 -112.5t128.5 -296.5q0 -212 -143 -310q-38 -26 -86 -44v0q27 -11 49 -24q126 -75 131 -252l7 -241q2 -72 15 -102t50 -48v-39h-339q-12 23 -21 98.5t-10 162.5l-2 136q-2 99 -58.5 141t-187.5 42h-306v0v-581v0h-153h-154v0z
M463 828v0h356q119 0 178.5 48.5t59.5 146.5q0 97 -56.5 145.5t-169.5 48.5h-368v0v-389zM617 -282v133h121h121v-204q0 -166 -62 -258.5t-192 -119.5v0v82v0q78 24 105 89q20 47 24 144v0h-44h-73v134z" />
    <glyph glyph-name="uni0157" unicode="&#x157;" horiz-adv-x="797" 
d="M131 0v1088v0h136h137v0v-195v0v0q15 32 34 62q101 162 261 162l65 -1v-293q-38 4 -86 4q-131 0 -195.5 -65t-64.5 -197v0v-565v0h-143h-144v0zM149 -282v133h121h121v-204q0 -166 -62 -258.5t-192 -119.5v0v82v0q78 24 105 89q20 47 24 144v0h-44h-73v134z" />
    <glyph glyph-name="Rcaron" unicode="&#x158;" horiz-adv-x="1479" 
d="M156 0v1470v0h153v0h588q210 0 338.5 -112.5t128.5 -296.5q0 -212 -143 -310q-38 -26 -86 -44v0q27 -11 49 -24q126 -75 131 -252l7 -241q2 -72 15 -102t50 -48v-39h-339q-12 23 -21 98.5t-10 162.5l-2 136q-2 99 -58.5 141t-187.5 42h-306v0v-581v0h-153h-154v0z
M463 828v0h356q119 0 178.5 48.5t59.5 146.5q0 97 -56.5 145.5t-169.5 48.5h-368v0v-389zM565 1621l-232 297h230l130 -167v0l130 167h230l-232 -297h-128h-128z" />
    <glyph glyph-name="rcaron" unicode="&#x159;" horiz-adv-x="797" 
d="M175 0v1088v0h136h137v0v-195v0v0q15 32 34 62q101 162 261 162l65 -1v-293q-38 4 -86 4q-131 0 -195.5 -65t-64.5 -197v0v-565v0h-143h-144v0zM363 1239l-232 297h230l130 -167v0l130 167h230l-232 -297h-128h-128z" />
    <glyph glyph-name="Sacute" unicode="&#x15a;" horiz-adv-x="1366" 
d="M953 1029v0q-8 105 -92 166.5t-219 61.5q-117 0 -183 -51.5t-66 -143.5q0 -66 69 -102q68 -36 289 -85q321 -72 429 -166q108 -93 108 -299q0 -207 -163 -328.5t-441 -121.5q-279 0 -436 129t-168 367v0h296v0q5 -117 85 -180t223 -63q147 0 229.5 47.5t82.5 131.5
q0 83 -59 122q-58 39 -248 81q-350 78 -468 169q-117 90 -117 281q0 214 155 339.5t419 125.5q247 0 402 -130t172 -351v0h-299zM556 1620l193 297h314l-300 -297h-207z" />
    <glyph glyph-name="sacute" unicode="&#x15b;" 
d="M749 762v0q0 63 -52 101t-138 38q-83 0 -129.5 -28.5t-46.5 -79.5q0 -36 53 -62q52 -25 185 -55q264 -59 353 -129t89 -220q0 -160 -129.5 -257.5t-341.5 -97.5q-251 0 -386.5 96t-144.5 280v0h292v0q3 -75 66.5 -117.5t172.5 -42.5q86 0 134.5 29.5t48.5 82.5
q0 37 -47 63q-47 25 -165 51q-276 62 -369 131q-93 68 -93 211q0 162 120.5 261.5t317.5 99.5q222 0 358 -97.5t136 -257.5v0h-284zM417 1238l193 297h314l-300 -297h-207z" />
    <glyph glyph-name="Scedilla" unicode="&#x15e;" horiz-adv-x="1366" 
d="M953 1029v0q-8 105 -92 166.5t-219 61.5q-117 0 -183 -51.5t-66 -143.5q0 -66 69 -102q68 -36 289 -85q321 -72 429 -166q108 -93 108 -299q0 -207 -163 -328.5t-441 -121.5q-279 0 -436 129t-168 367v0h296v0q5 -117 85 -180t223 -63q147 0 229.5 47.5t82.5 131.5
q0 83 -59 122q-58 39 -248 81q-350 78 -468 169q-117 90 -117 281q0 214 155 339.5t419 125.5q247 0 402 -130t172 -351v0h-299zM695 -1l-72 -110v0q47 8 57 7q81 0 130.5 -44t49.5 -116q0 -93 -69 -148t-186 -55q-55 0 -118.5 14.5t-116.5 39.5l45 96q51 -16 93 -24.5
t65 -8.5q40 0 68 23t28 57q0 33 -22.5 53.5t-57.5 20.5q-17 0 -38.5 -4.5t-43.5 -12.5l-43 42l112 170h119z" />
    <glyph glyph-name="scedilla" unicode="&#x15f;" 
d="M749 762v0q0 63 -52 101t-138 38q-83 0 -129.5 -28.5t-46.5 -79.5q0 -36 53 -62q52 -25 185 -55q264 -59 353 -129t89 -220q0 -160 -129.5 -257.5t-341.5 -97.5q-251 0 -386.5 96t-144.5 280v0h292v0q3 -75 66.5 -117.5t172.5 -42.5q86 0 134.5 29.5t48.5 82.5
q0 37 -47 63q-47 25 -165 51q-276 62 -369 131q-93 68 -93 211q0 162 120.5 261.5t317.5 99.5q222 0 358 -97.5t136 -257.5v0h-284zM618 -1l-72 -109v0l57 6q81 0 130.5 -44t49.5 -116q0 -93 -69 -148t-186 -55q-56 0 -119.5 14.5t-115.5 39.5l45 96q50 -16 92 -24.5
t66 -8.5q40 0 68 23t28 57q0 33 -22.5 53.5t-57.5 20.5q-16 0 -37.5 -4.5t-44.5 -12.5l-43 42l112 170h119z" />
    <glyph glyph-name="Scaron" unicode="&#x160;" horiz-adv-x="1366" 
d="M953 1029v0q-8 105 -92 166.5t-219 61.5q-117 0 -183 -51.5t-66 -143.5q0 -66 69 -102q68 -36 289 -85q321 -72 429 -166q108 -93 108 -299q0 -207 -163 -328.5t-441 -121.5q-279 0 -436 129t-168 367v0h296v0q5 -117 85 -180t223 -63q147 0 229.5 47.5t82.5 131.5
q0 83 -59 122q-58 39 -248 81q-350 78 -468 169q-117 90 -117 281q0 214 155 339.5t419 125.5q247 0 402 -130t172 -351v0h-299zM543 1621l-232 297h230l130 -167v0l130 167h230l-232 -297h-128h-128z" />
    <glyph glyph-name="scaron" unicode="&#x161;" 
d="M749 762v0q0 63 -52 101t-138 38q-83 0 -129.5 -28.5t-46.5 -79.5q0 -36 53 -62q52 -25 185 -55q264 -59 353 -129t89 -220q0 -160 -129.5 -257.5t-341.5 -97.5q-251 0 -386.5 96t-144.5 280v0h292v0q3 -75 66.5 -117.5t172.5 -42.5q86 0 134.5 29.5t48.5 82.5
q0 37 -47 63q-47 25 -165 51q-276 62 -369 131q-93 68 -93 211q0 162 120.5 261.5t317.5 99.5q222 0 358 -97.5t136 -257.5v0h-284zM411 1239l-232 297h230l130 -167v0l130 167h230l-232 -297h-128h-128z" />
    <glyph glyph-name="uni0162" unicode="&#x162;" horiz-adv-x="1251" 
d="M473 0v1209v0h-444v0v130v131v0h1195v0v-130v-131v0h-444v0v-1209v0h-153h-154v0zM496 -280v149h135h134v-197q0 -157 -69 -246.5t-213 -119.5v0v91v0q87 27 117 81q19 34 25 93v0h-48h-81v149z" />
    <glyph glyph-name="uni0163" unicode="&#x163;" horiz-adv-x="682" 
d="M633 -6q-72 -6 -177 -6q-152 0 -218.5 54.5t-66.5 178.5v666v0h-151v201h151v0v293h287v-293v0h175v-201h-175v0v-618q0 -38 22.5 -50t93.5 -12h59v-213zM275 -275v132h121h121v-178q0 -143 -62 -224t-192 -108v0v82v0q78 24 105 74q17 32 23 89v0h-43h-73v133z" />
    <glyph glyph-name="Tcaron" unicode="&#x164;" horiz-adv-x="1251" 
d="M473 0v1209v0h-444v0v130v131v0h1195v0v-130v-131v0h-444v0v-1209v0h-153h-154v0zM491 1621l-232 297h230l130 -167v0l130 167h230l-232 -297h-128h-128z" />
    <glyph glyph-name="tcaron" unicode="&#x165;" horiz-adv-x="941" 
d="M644 -6q-72 -6 -177 -6q-152 0 -218.5 54.5t-66.5 178.5v666v0h-151v201h151v0v293h287v-293v0h175v-201h-175v0v-618q0 -38 22.5 -50t93.5 -12h59v-213zM706 1330v133h121h121v-204q0 -166 -62 -258.5t-192 -119.5v0v82v0q78 24 105 89q20 47 24 144v0h-44h-73v134z" />
    <glyph glyph-name="Umacron" unicode="&#x16a;" horiz-adv-x="1479" 
d="M1334 554q1 -315 -138.5 -454.5t-454.5 -139.5q-302 0 -447.5 145.5t-146.5 448.5v916v0h153h154v0v-926q0 -158 71.5 -237t215.5 -79q154 0 220 72.5t66 243.5v926v0h153h154v0v-916zM418 1806h644v-162h-644v162z" />
    <glyph glyph-name="umacron" unicode="&#x16b;" horiz-adv-x="1251" 
d="M422 1088v-681q0 -100 43 -148t132 -48q112 0 172 68t60 196v0v613v0h143h144v0v-1088v0h-136h-137v0v163v0v0q-15 -30 -36 -56q-106 -135 -307 -135q-172 0 -268.5 101.5t-96.5 281.5v733v0h143h144v0zM303 1424h644v-162h-644v162z" />
    <glyph glyph-name="Uring" unicode="&#x16e;" horiz-adv-x="1479" 
d="M1334 554q1 -315 -138.5 -454.5t-454.5 -139.5q-302 0 -447.5 145.5t-146.5 448.5v916v0h153h154v0v-926q0 -158 71.5 -237t215.5 -79q154 0 220 72.5t66 243.5v926v0h153h154v0v-916zM744 1544q-93 0 -157 62t-64 151t64 151t157 62t157 -62t64 -151t-64 -151t-157 -62
v0zM744 1655q47 0 79 29.5t32 72.5t-32 72.5t-79 29.5t-79 -29.5t-32 -72.5t32 -72.5t79 -29.5v0z" />
    <glyph glyph-name="uring" unicode="&#x16f;" horiz-adv-x="1251" 
d="M422 1088v-681q0 -100 43 -148t132 -48q112 0 172 68t60 196v0v613v0h143h144v0v-1088v0h-136h-137v0v163v0v0q-15 -30 -36 -56q-106 -135 -307 -135q-172 0 -268.5 101.5t-96.5 281.5v733v0h143h144v0zM629 1162q-93 0 -157 62t-64 151t64 151t157 62t157 -62t64 -151
t-64 -151t-157 -62v0zM629 1273q47 0 79 29.5t32 72.5t-32 72.5t-79 29.5t-79 -29.5t-32 -72.5t32 -72.5t79 -29.5v0z" />
    <glyph glyph-name="Uhungarumlaut" unicode="&#x170;" horiz-adv-x="1479" 
d="M1334 554q1 -315 -138.5 -454.5t-454.5 -139.5q-302 0 -447.5 145.5t-146.5 448.5v916v0h153h154v0v-926q0 -158 71.5 -237t215.5 -79q154 0 220 72.5t66 243.5v926v0h153h154v0v-916zM342 1575l193 297h314l-300 -297h-207zM813 1575l193 297h314l-300 -297h-207z" />
    <glyph glyph-name="uhungarumlaut" unicode="&#x171;" horiz-adv-x="1251" 
d="M422 1088v-681q0 -100 43 -148t132 -48q112 0 172 68t60 196v0v613v0h143h144v0v-1088v0h-136h-137v0v163v0v0q-15 -30 -36 -56q-106 -135 -307 -135q-172 0 -268.5 101.5t-96.5 281.5v733v0h143h144v0zM227 1238l193 297h314l-300 -297h-207zM698 1238l193 297h314
l-300 -297h-207z" />
    <glyph glyph-name="Uogonek" unicode="&#x172;" horiz-adv-x="1479" 
d="M1334 554q1 -315 -138.5 -454.5t-454.5 -139.5q-302 0 -447.5 145.5t-146.5 448.5v916v0h153h154v0v-926q0 -158 71.5 -237t215.5 -79q154 0 220 72.5t66 243.5v926v0h153h154v0v-916zM582 -275q0 90 63 165.5t166 108.5h178q-102 -60 -157.5 -126t-55.5 -128
q0 -43 26 -70t67 -27q38 0 78.5 9.5t74.5 25.5l38 -102q-55 -21 -117 -34t-108 -13q-109 0 -181 55q-72 54 -72 136z" />
    <glyph glyph-name="uogonek" unicode="&#x173;" horiz-adv-x="1251" 
d="M422 1088v-681q0 -100 43 -148t132 -48q112 0 172 68t60 196v0v613v0h143h144v0v-1088v0h-136h-137v0v163v0v0q-15 -30 -36 -56q-106 -135 -307 -135q-172 0 -268.5 101.5t-96.5 281.5v733v0h143h144v0zM616 -275q0 90 63 165.5t166 108.5h178q-102 -60 -157.5 -126
t-55.5 -128q0 -43 26 -70t67 -27q38 0 78.5 9.5t74.5 25.5l38 -102q-55 -21 -117 -34t-108 -13q-109 0 -181 55q-72 54 -72 136z" />
    <glyph glyph-name="Ydieresis" unicode="&#x178;" horiz-adv-x="1366" 
d="M544 553v0l-513 917v0h182h183v0l306 -638v0l287 638v0h174h174v0l-486 -911v0v-559h-153h-154v553zM355 1874h258v-235h-258v235zM754 1874h258v-235h-258v235z" />
    <glyph glyph-name="Zacute" unicode="&#x179;" horiz-adv-x="1251" 
d="M51 258l762 951v0h-737v0v130v131v0h1124v-121v-121l-776 -967v0h774v0v-130v-131v0h-1147v129v129zM516 1620l193 297h314l-300 -297h-207z" />
    <glyph glyph-name="zacute" unicode="&#x17a;" horiz-adv-x="1024" 
d="M41 223l551 630l7 8v0h-517v0v113v114v0h876v-117v-118l-544 -618v0h569v0v-117v-118v0h-942v111v112zM398 1238l193 297h314l-300 -297h-207z" />
    <glyph glyph-name="Zdotaccent" unicode="&#x17b;" horiz-adv-x="1251" 
d="M51 258l762 951v0h-737v0v130v131v0h1124v-121v-121l-776 -967v0h774v0v-130v-131v0h-1147v129v129zM509 1875h258v-236h-258v236z" />
    <glyph glyph-name="zdotaccent" unicode="&#x17c;" horiz-adv-x="1024" 
d="M41 223l551 630l7 8v0h-517v0v113v114v0h876v-117v-118l-544 -618v0h569v0v-117v-118v0h-942v111v112zM391 1493h258v-236h-258v236z" />
    <glyph glyph-name="Zcaron" unicode="&#x17d;" horiz-adv-x="1251" 
d="M51 258l762 951v0h-737v0v130v131v0h1124v-121v-121l-776 -967v0h774v0v-130v-131v0h-1147v129v129zM503 1621l-232 297h230l130 -167v0l130 167h230l-232 -297h-128h-128z" />
    <glyph glyph-name="zcaron" unicode="&#x17e;" horiz-adv-x="1024" 
d="M41 223l551 630l7 8v0h-517v0v113v114v0h876v-117v-118l-544 -618v0h569v0v-117v-118v0h-942v111v112zM392 1239l-232 297h230l130 -167v0l130 167h230l-232 -297h-128h-128z" />
    <glyph glyph-name="florin" unicode="&#x192;" 
d="M694 778v0l-131 -753q-39 -230 -134 -343.5t-248 -113.5q-115 1 -200 43l51 217l13 -6q43 -18 93 -18q60 0 90.5 60t61.5 243l117 671v0h-236l-1 201h272v0l20 113q37 212 132.5 316t253.5 104q117 0 208 -44l-52 -216l-10 4q-48 20 -103 20q-66 0 -96 -47t-55 -191
l-11 -59v0h236l1 -201h-272z" />
    <glyph glyph-name="circumflex" unicode="&#x2c6;" horiz-adv-x="682" 
d="M469 1535l232 -297h-230l-130 167v0l-130 -167h-230l232 297h128h128z" />
    <glyph glyph-name="caron" unicode="&#x2c7;" horiz-adv-x="682" 
d="M213 1239l-232 297h230l130 -167v0l130 167h230l-232 -297h-128h-128z" />
    <glyph glyph-name="uni02C9" unicode="&#x2c9;" horiz-adv-x="682" 
d="M19 1416h644v-162h-644v162z" />
    <glyph glyph-name="breve" unicode="&#x2d8;" horiz-adv-x="682" 
d="M351 1238q-149 0 -227 72t-98 229h136q10 -77 57.5 -111.5t145.5 -34.5q108 0 159 34.5t58 111.5h136q-24 -157 -112.5 -229t-254.5 -72z" />
    <glyph glyph-name="dotaccent" unicode="&#x2d9;" horiz-adv-x="682" 
d="M205 1493h258v-236h-258v236z" />
    <glyph glyph-name="ring" unicode="&#x2da;" horiz-adv-x="682" 
d="M342 1162q-93 0 -157 62t-64 151t64 151t157 62t157 -62t64 -151t-64 -151t-157 -62v0zM342 1273q47 0 79 29.5t32 72.5t-32 72.5t-79 29.5t-79 -29.5t-32 -72.5t32 -72.5t79 -29.5v0z" />
    <glyph glyph-name="ogonek" unicode="&#x2db;" horiz-adv-x="682" 
d="M160 -275q0 90 63 165.5t166 108.5h178q-102 -60 -157.5 -126t-55.5 -128q0 -43 26 -70t67 -27q38 0 78.5 9.5t74.5 25.5l38 -102q-55 -21 -117 -34t-108 -13q-109 0 -181 55q-72 54 -72 136z" />
    <glyph glyph-name="tilde" unicode="&#x2dc;" horiz-adv-x="682" 
d="M-34 1251q17 116 83.5 184t164.5 68q21 0 67 -13t92 -32q30 -13 66.5 -21.5t58.5 -8.5q28 0 54 24.5t36 60.5h128q-14 -116 -75 -184t-150 -68q-21 0 -74 13t-108 32q-37 13 -73 21.5t-52 8.5q-30 0 -56 -24.5t-34 -60.5h-128z" />
    <glyph glyph-name="hungarumlaut" unicode="&#x2dd;" horiz-adv-x="682" 
d="M96 1238l193 297h314l-300 -297h-207zM567 1238l193 297h314l-300 -297h-207z" />
    <glyph glyph-name="pi" unicode="&#x3c0;" horiz-adv-x="1246" 
d="M112 692q91 160 171.5 213.5t229.5 53.5l338 1q90 0 191 2.5t146 6.5l-30 -164h-301q-32 -171 -29 -326t43 -334q22 -99 7 -134.5t-78 -35.5q-64 0 -97.5 59t-33.5 172q0 95 23 233t78 366h-148l-116 -652q-18 -105 -45 -141.5t-86 -36.5q-66 0 -76.5 45t28.5 165
l211 620h-94q-75 0 -130.5 -31.5t-140.5 -121.5z" />
    <glyph glyph-name="endash" unicode="&#x2013;" 
d="M0 684h1138v-221h-1138v221z" />
    <glyph glyph-name="emdash" unicode="&#x2014;" horiz-adv-x="2048" 
d="M0 684h2048v-221h-2048v221z" />
    <glyph glyph-name="quoteleft" unicode="&#x2018;" horiz-adv-x="569" 
d="M428 1061v-130h-144h-143v194q0 155 68.5 243t211.5 118v0v-103v0q-91 -28 -123 -83q-21 -38 -28 -109v0h72h86v-130z" />
    <glyph glyph-name="quoteright" unicode="&#x2019;" horiz-adv-x="569" 
d="M141 1339v130h144h143v-194q0 -155 -68.5 -243t-211.5 -118v0v103v0q91 28 123 83q21 39 28 109v0h-72h-86v130z" />
    <glyph glyph-name="quotesinglbase" unicode="&#x201a;" horiz-adv-x="569" 
d="M141 130v130h144h143v-194q0 -154 -68.5 -242t-211.5 -118v0v103v0q91 28 123 83q21 38 28 108v0h-72h-86v130z" />
    <glyph glyph-name="quotedblleft" unicode="&#x201c;" horiz-adv-x="1024" 
d="M418 1061v-130h-144h-143v194q0 155 68.5 243t211.5 118v0v-103v0q-91 -28 -123 -83q-21 -38 -28 -109v0h72h86v-130zM893 1061v-130h-144h-143v194q0 155 68.5 243t211.5 118v0v-103v0q-91 -28 -123 -83q-21 -38 -28 -109v0h72h86v-130z" />
    <glyph glyph-name="quotedblright" unicode="&#x201d;" horiz-adv-x="1024" 
d="M131 1339v130h144h143v-194q0 -155 -68.5 -243t-211.5 -118v0v103v0q91 28 123 83q21 39 28 109v0h-72h-86v130zM606 1339v130h144h143v-194q0 -155 -68.5 -243t-211.5 -118v0v103v0q91 28 123 83q21 39 28 109v0h-72h-86v130z" />
    <glyph glyph-name="quotedblbase" unicode="&#x201e;" horiz-adv-x="1024" 
d="M131 130v130h144h143v-194q0 -155 -68.5 -243t-211.5 -118v0v103v0q91 28 123 83q21 38 28 109v0h-72h-86v130zM606 130v130h144h143v-194q0 -155 -68.5 -243t-211.5 -118v0v103v0q91 28 123 83q21 38 28 109v0h-72h-86v130z" />
    <glyph glyph-name="dagger" unicode="&#x2020;" 
d="M74 1028h357v0v442h276v-442v0h358v-234h-358v0v-1146h-276v1146v0h-357v234z" />
    <glyph glyph-name="daggerdbl" unicode="&#x2021;" 
d="M74 1040h358v0v430h273v-430v0h360v-234h-360v0v-477v0h360v-234h-360v0v-447h-273v447v0h-358v234h358v0v477v0h-358v234z" />
    <glyph glyph-name="bullet" unicode="&#x2022;" horiz-adv-x="717" 
d="M358 1071q142 0 240 -98.5t98 -240.5t-98 -240t-240 -98t-240 98t-98 240t98 240.5t240 98.5z" />
    <glyph glyph-name="ellipsis" unicode="&#x2026;" horiz-adv-x="2048" 
d="M188 298h306v-298h-306v298zM870 298h306v-298h-306v298zM1553 298h306v-298h-306v298z" />
    <glyph glyph-name="perthousand" unicode="&#x2030;" horiz-adv-x="2048" 
d="M323 798q-138 0 -233 94t-95 230q0 139 95 235.5t233 96.5t233.5 -96.5t95.5 -235.5q0 -136 -95.5 -230t-233.5 -94v0zM323 1250q-53 0 -88.5 -36t-35.5 -90q0 -52 35.5 -87t88.5 -35q54 0 89.5 35t35.5 87q0 54 -35.5 90t-89.5 36v0zM165 -40l815 1494h150l-815 -1494
h-150zM970 -11q-138 0 -233 94t-95 230q0 139 95 235.5t233 96.5t233.5 -96.5t95.5 -235.5q0 -136 -95.5 -230t-233.5 -94v0zM970 441q-53 0 -88.5 -36t-35.5 -90q0 -52 35.5 -87t88.5 -35q54 0 89.5 35t35.5 87q0 54 -35.5 90t-89.5 36v0zM1717 -11q-138 0 -233 94t-95 230
q0 139 95 235.5t233 96.5t233.5 -96.5t95.5 -235.5q0 -136 -95.5 -230t-233.5 -94v0zM1717 441q-53 0 -88.5 -36t-35.5 -90q0 -52 35.5 -87t88.5 -35q54 0 89.5 35t35.5 87q0 54 -35.5 90t-89.5 36v0z" />
    <glyph glyph-name="guilsinglleft" unicode="&#x2039;" horiz-adv-x="682" 
d="M512 751l-206 -179v0l206 -178v-238l-342 297v120v120l342 297v-239z" />
    <glyph glyph-name="guilsinglright" unicode="&#x203a;" horiz-adv-x="682" 
d="M170 394l206 179v0l-206 178v238l342 -297v-120v-120l-342 -297v239z" />
    <glyph glyph-name="fraction" unicode="&#x2044;" horiz-adv-x="342" 
d="M687 1455l-873 -1499h-161l873 1499h161z" />
    <glyph glyph-name="uni2074" unicode="&#x2074;" horiz-adv-x="682" 
d="M345 771h-340v89v89l312 496h115h116v-510v0h104v-164h-104v0v-190h-203v190v0zM345 935v0v313v0v0l-188 -299l-9 -14v0h197z" />
    <glyph glyph-name="Euro" unicode="&#x20ac;" 
d="M1103 414v0q-23 -208 -149.5 -330t-320.5 -122q-251 0 -376 185q-75 113 -105 288h-152l40 215h91v52v58h-131l40 215h111q32 181 106 294q125 189 376 189q189 0 316 -127.5t154 -344.5v0h-290v0q-12 100 -62.5 158.5t-123.5 58.5q-105 0 -154 -120q-18 -45 -30 -108
h295l-40 -215h-273v-55v-55h252l-40 -215h-191q13 -54 31 -99q51 -119 158 -119q72 0 120 53t58 144v0h290z" />
    <glyph glyph-name="trademark" unicode="&#x2122;" horiz-adv-x="2048" 
d="M325 632v662v0h-235v0v88v88v0h701v0v-88v-88v0h-236v0v-662v0h-115h-115v0zM1164 632v0h-107h-108v0v838v0h156h156v0l195 -695v0v0l190 695v0h156h156v0v-838v0h-107h-108v0v763v0l-203 -763h-86h-86l-204 760v0v-760z" />
    <glyph glyph-name="Omega" unicode="&#x2126;" horiz-adv-x="1246" 
d="M599 0h-413l-74 410l74 12q33 -138 61.5 -171t114.5 -36h79q-32 61 -89.5 161t-109.5 184q-65 106 -103 211.5t-38 180.5q0 209 149.5 334.5t403.5 129.5q241 0 397.5 -129t156.5 -328q0 -79 -37.5 -185t-103.5 -214q-38 -62 -95.5 -162t-103.5 -183h79q75 -1 112 42.5
t64 164.5l73 -12l-74 -410h-412q122 338 129.5 361t30.5 97q46 148 70.5 276.5t24.5 217.5q0 162 -86.5 266.5t-224.5 108.5q-138 -4 -224 -107t-86 -265q0 -78 27.5 -222t67.5 -275q24 -77 70 -209.5t90 -248.5z" />
    <glyph glyph-name="partialdiff" unicode="&#x2202;" horiz-adv-x="1020" 
d="M81 385q0 234 139.5 416.5t317.5 182.5q48 0 96.5 -16t104.5 -50q21 190 -16.5 302t-122.5 112q-28 0 -60.5 -28.5t-51.5 -70.5q-29 -63 -49.5 -82.5t-60.5 -19.5q-60 0 -86.5 49t2.5 106q32 62 104.5 105t146.5 43q196 0 294 -155t97 -465q0 -372 -145.5 -609
t-372.5 -237q-148 0 -242.5 117t-94.5 300zM271 324q0 -114 44 -193t108 -79q108 0 184 178t76 431q0 120 -39 180t-117 60q-107 0 -181.5 -167.5t-74.5 -409.5z" />
    <glyph glyph-name="Delta" unicode="&#x2206;" horiz-adv-x="1360" 
d="M740 1391l582 -1391h-1285zM667 1077l-446 -883h799z" />
    <glyph glyph-name="product" unicode="&#x220f;" horiz-adv-x="2039" 
d="M197 -315v65q151 17 197.5 88.5t46.5 289.5v901q3 217 -43.5 288.5t-200.5 88.5v65h1645v-65q-151 -17 -197.5 -88.5t-46.5 -288.5v-901q0 -218 46.5 -289.5t197.5 -88.5v-65h-704v65q157 17 202 87t42 291v1262h-725v-1262q0 -218 46.5 -289.5t197.5 -88.5v-65h-704z
" />
    <glyph glyph-name="summation" unicode="&#x2211;" horiz-adv-x="2039" 
d="M416 -315l491 838l-482 948h1119l46 -366l-70 -14l-17 39q-54 142 -142.5 200.5t-250.5 58.5h-403l370 -740l-451 -756h524q138 0 219 51t149 180l22 41l70 -21l-117 -459h-1077z" />
    <glyph glyph-name="minus" unicode="&#x2212;" horiz-adv-x="1196" 
d="M85 634h1024v-230h-1024v230z" />
    <glyph glyph-name="uni2215" unicode="&#x2215;" horiz-adv-x="342" 
d="M687 1455l-873 -1499h-161l873 1499h161z" />
    <glyph glyph-name="uni2219" unicode="&#x2219;" horiz-adv-x="569" 
d="M119 866h306v-298h-306v298z" />
    <glyph glyph-name="radical" unicode="&#x221a;" horiz-adv-x="1473" 
d="M56 438l298 194l506 -750l480 1647h382v-86h-281l-553 -1817h-74l-570 821l-145 -105z" />
    <glyph glyph-name="infinity" unicode="&#x221e;" horiz-adv-x="2039" 
d="M283 569q0 179 116.5 302t285.5 123q122 0 210.5 -60.5t175.5 -202.5q74 109 157.5 163t177.5 54q153 0 250.5 -105.5t97.5 -271.5q0 -162 -97 -269t-243 -107q-105 0 -189 56.5t-135 161.5q-106 -156 -186.5 -210t-206.5 -54q-174 0 -294 122t-120 298zM394 567
q0 -107 69 -181t169 -74q109 0 193.5 73t159.5 232q-63 113 -137.5 163.5t-180.5 50.5q-115 0 -194 -76.5t-79 -187.5zM1643 569q0 97 -59.5 156.5t-157.5 59.5q-84 0 -146 -50.5t-122 -168.5q41 -100 111.5 -154t159.5 -54q98 0 156 57t58 154z" />
    <glyph glyph-name="integral" unicode="&#x222b;" horiz-adv-x="2039" 
d="M752 -319q0 42 27.5 72.5t65.5 30.5q35 0 60 -25.5t25 -61.5l-9 -60q-1 -9 6 -15.5t19 -6.5q52 -1 69.5 87t-7.5 222q-36 191 -69 425t-45 383q-33 427 23 632t206 205q66 0 112 -42t46 -102q0 -52 -23.5 -78t-70.5 -26q-42 0 -63 19t-21 58q0 10 16 72q2 8 -5.5 14
t-20.5 6q-77 0 -80 -130.5t65 -491.5q54 -284 68 -600.5t-19 -491.5q-23 -120 -74.5 -180t-131.5 -60q-71 0 -120 42t-49 103z" />
    <glyph glyph-name="approxequal" unicode="&#x2248;" horiz-adv-x="2039" 
d="M414 275q57 100 157 169.5t188 69.5q55 0 150 -21.5t216 -60.5q68 -22 146.5 -37t123.5 -15q60 0 132 35.5t116 86.5l37 -22q-48 -115 -136 -182.5t-190 -67.5q-31 0 -105 14t-150 35q-162 44 -254.5 64.5t-130.5 20.5q-64 0 -142 -35t-127 -86zM414 626
q57 100 157 169.5t188 69.5q55 0 150 -21.5t216 -60.5q68 -22 146.5 -37t123.5 -15q60 0 132 35.5t116 86.5l37 -22q-48 -115 -136 -182.5t-190 -67.5q-31 0 -105 14t-150 35q-162 44 -254.5 64.5t-130.5 20.5q-64 0 -142 -35t-127 -86z" />
    <glyph glyph-name="notequal" unicode="&#x2260;" horiz-adv-x="2039" 
d="M410 -93l318 372h-321v135h437l236 276h-673v135h788l317 367h164l-315 -367h312v-135h-427l-236 -276h663v-135h-779l-318 -372h-166z" />
    <glyph glyph-name="lessequal" unicode="&#x2264;" horiz-adv-x="2039" 
d="M1683 1235v-135l-1063 -410l1063 -309v-135l-1266 377v135zM417 135h1266v-135h-1266v135z" />
    <glyph glyph-name="greaterequal" unicode="&#x2265;" horiz-adv-x="2039" 
d="M417 1235l1266 -477v-135l-1266 -377v135l1063 309l-1063 410v135zM417 135h1266v-135h-1266v135z" />
    <glyph glyph-name="lozenge" unicode="&#x25ca;" horiz-adv-x="1171" 
d="M530 1423h110l404 -712l-404 -711h-110l-404 711zM585 1324l-349 -613l349 -615l349 615z" />
    <glyph glyph-name="uniEFED" unicode="&#xefed;" horiz-adv-x="682" 
d="M205 1875h258v-236h-258v236z" />
    <glyph glyph-name="uniEFEE" unicode="&#xefee;" horiz-adv-x="682" 
d="M351 1620q-149 0 -227 72t-98 229h136q10 -77 57.5 -111.5t145.5 -34.5q108 0 159 34.5t58 111.5h136q-24 -157 -112.5 -229t-254.5 -72z" />
    <glyph glyph-name="uniEFEF" unicode="&#xefef;" horiz-adv-x="682" 
d="M19 1806h644v-162h-644v162z" />
    <glyph glyph-name="uniEFF0" unicode="&#xeff0;" horiz-adv-x="682" 
d="M96 1575l193 297h314l-300 -297h-207zM567 1575l193 297h314l-300 -297h-207z" />
    <glyph glyph-name="uniEFF1" unicode="&#xeff1;" horiz-adv-x="682" 
d="M160 -275q0 90 63 165.5t166 108.5h178q-102 -60 -157.5 -126t-55.5 -128q0 -43 26 -70t67 -27q38 0 78.5 9.5t74.5 25.5l38 -102q-55 -21 -117 -34t-108 -13q-109 0 -181 55q-72 54 -72 136z" />
    <glyph glyph-name="uniEFF2" unicode="&#xeff2;" horiz-adv-x="682" 
d="M337 -1l-72 -110v0q47 8 57 7q81 0 130.5 -44t49.5 -116q0 -93 -69 -148t-186 -55q-55 0 -118.5 14.5t-116.5 39.5l45 96q51 -16 93 -24.5t65 -8.5q40 0 68 23t28 57q0 33 -22.5 53.5t-57.5 20.5q-17 0 -38.5 -4.5t-43.5 -12.5l-43 42l112 170h119z" />
    <glyph glyph-name="uniEFF3" unicode="&#xeff3;" horiz-adv-x="682" 
d="M342 1544q-93 0 -157 62t-64 151t64 151t157 62t157 -62t64 -151t-64 -151t-157 -62v0zM342 1655q47 0 79 29.5t32 72.5t-32 72.5t-79 29.5t-79 -29.5t-32 -72.5t32 -72.5t79 -29.5v0z" />
    <glyph glyph-name="uniEFF4" unicode="&#xeff4;" horiz-adv-x="682" 
d="M213 1621l-232 297h230l130 -167v0l130 167h230l-232 -297h-128h-128z" />
    <glyph glyph-name="uniEFF5" unicode="&#xeff5;" horiz-adv-x="682" 
d="M-34 1633q17 116 83.5 184t164.5 68q21 0 67 -13t92 -32q30 -13 66.5 -21.5t58.5 -8.5q28 0 54 24.5t36 60.5h128q-14 -116 -75 -184t-150 -68q-21 0 -74 13t-108 32q-37 13 -73 21.5t-52 8.5q-30 0 -56 -24.5t-34 -60.5h-128z" />
    <glyph glyph-name="uniEFF6" unicode="&#xeff6;" horiz-adv-x="682" 
d="M12 1874h258v-235h-258v235zM411 1874h258v-235h-258v235z" />
    <glyph glyph-name="uniEFF7" unicode="&#xeff7;" horiz-adv-x="682" 
d="M469 1917l232 -297h-230l-130 167v0l-130 -167h-230l232 297h128h128z" />
    <glyph glyph-name="uniEFF8" unicode="&#xeff8;" horiz-adv-x="682" 
d="M254 1620l-300 297h314l193 -297h-207z" />
    <glyph glyph-name="uniEFF9" unicode="&#xeff9;" horiz-adv-x="682" 
d="M221 1620l193 297h314l-300 -297h-207z" />
    <glyph glyph-name="uniF001" unicode="&#xf001;" horiz-adv-x="1251" 
d="M466 887v0v-887v0h-143h-144v0v887v0h-159v201h159v0v91q0 157 83.5 234t253.5 77q76 1 135 -7v-229h-91q-57 0 -75.5 -23t-18.5 -94v-49v0h185v-201h-185zM822 0v1088v0h143h144v0v-1088v0h-143h-144v0zM819 1481h292v-266h-292v266z" />
    <glyph glyph-name="uniF002" unicode="&#xf002;" horiz-adv-x="1251" 
d="M466 887v0v-887v0h-143h-144v0v887v0h-159v201h159v0v91q0 157 83.5 234t253.5 77q76 1 135 -7v-229h-91q-57 0 -75.5 -23t-18.5 -94v-49v0h185v-201h-185zM824 0v1470v0h143h144v0v-1470v0h-143h-144v0z" />
    <glyph glyph-name="uniFB01" unicode="&#xfb01;" horiz-adv-x="1251" 
d="M466 887v0v-887v0h-143h-144v0v887v0h-159v201h159v0v91q0 157 83.5 234t253.5 77q76 1 135 -7v-229h-91q-57 0 -75.5 -23t-18.5 -94v-49v0h185v-201h-185zM822 0v1088v0h143h144v0v-1088v0h-143h-144v0zM819 1481h292v-266h-292v266z" />
    <glyph glyph-name="glyph106" horiz-adv-x="0" 
d="M-1 1513q334 0 556 -221.5t222 -556.5q0 -334 -221.5 -555.5t-556.5 -221.5t-556 221.5t-221 555.5q0 335 221.5 556.5t555.5 221.5v0zM553 735q0 255 -157.5 424.5t-396.5 169.5q-238 0 -395.5 -169.5t-157.5 -424.5t158 -424t395 -169q238 0 396 169t158 424v0z" />
    <glyph glyph-name="glyph107" horiz-adv-x="0" 
d="M381 617v0q-29 -150 -128.5 -237.5t-240.5 -87.5q-191 0 -307.5 120.5t-116.5 318.5q0 206 114.5 327t309.5 121q152 0 251.5 -85.5t117.5 -230.5v0h-183v0q-8 63 -58 100t-128 37q-100 0 -156.5 -71t-56.5 -197q0 -120 57.5 -190.5t155.5 -70.5q73 0 123 39.5t63 106.5
v0h183z" />
    <glyph glyph-name="glyph113" horiz-adv-x="0" 
d="M-1 1512q334 0 555.5 -221.5t221.5 -555.5t-221 -555t-556 -221q-334 0 -555 221t-221 555t221.5 555.5t554.5 221.5v0zM555 735q0 256 -158 426t-398 170q-239 0 -397 -170t-158 -426t158.5 -425.5t396.5 -169.5q239 0 397.5 169.5t158.5 425.5v0z" />
    <glyph glyph-name="glyph114" horiz-adv-x="0" 
d="M-323 317v837v0h91v0h234q160 0 243 -60.5t83 -177.5q0 -134 -77 -194q-43 -33 -114 -48v0l205 -357v0h-103h-104v0l-193 345v0h-82v0v-345v0h-91h-92v0zM-140 806v0h142q72 0 107.5 27t35.5 81q0 49 -35.5 73t-107.5 24h-142v0v-205z" />
    <glyph glyph-name="glyph130" horiz-adv-x="682" 
d="M280 581v593v0l-227 1v131q85 -7 155 32t110 116h169v0v-873v0h-103h-104v0z" />
    <glyph glyph-name="glyph131" horiz-adv-x="682" 
d="M345 771h-340v89v89l312 496h115h116v-510v0h104v-164h-104v0v-190h-203v190v0zM345 935v0v313v0v0l-188 -299l-9 -14v0h197z" />
    <glyph glyph-name="glyph133" horiz-adv-x="682" 
d="M280 581v593v0l-227 1v131q85 -7 155 32t110 116h169v0v-873v0h-103h-104v0z" />
    <glyph glyph-name="glyph134" horiz-adv-x="682" 
d="M664 1175q0 -97 -50.5 -164.5t-190.5 -156.5q-91 -57 -140 -107v0h381v-166h-646v0q0 117 63 202t237 203q82 56 115.5 101t33.5 101q0 47 -35.5 76t-93.5 29q-62 0 -96.5 -41t-32.5 -111v0h-179v0q-5 144 81 228.5t236 84.5q140 0 229 -78q88 -78 88 -201z" />
    <glyph glyph-name="glyph136" horiz-adv-x="682" 
d="M448 1192q0 47 -31 76t-82 29q-58 0 -89.5 -31.5t-32.5 -89.5v0h-177v0q2 133 83.5 205.5t229.5 72.5q128 0 209.5 -67.5t81.5 -174.5q0 -92 -85 -151l-37 -22v0q40 -13 69 -34q81 -57 81 -173q0 -121 -91.5 -198.5t-234.5 -77.5q-155 0 -239.5 74.5t-86.5 212.5v0h187v0
q1 -66 34.5 -100.5t96.5 -34.5q62 0 99.5 36t37.5 95q0 52 -40 84q-33 25 -83 30q-27 3 -52 3t-33 -2v133q10 -2 85 4q43 4 69 26q31 26 31 75z" />
    <glyph glyph-name="glyph137" horiz-adv-x="682" 
d="M345 771h-340v89v89l312 496h115h116v-510v0h104v-164h-104v0v-190h-203v190v0zM345 935v0v313v0v0l-188 -299l-9 -14v0h197z" />
    <glyph glyph-name="glyph140" horiz-adv-x="0" 
d="M-75 0l-300 297h314l193 -297h-207z" />
    <glyph glyph-name="glyph142" horiz-adv-x="0" 
d="M-122 0l193 297h314l-300 -297h-207z" />
    <glyph glyph-name="glyph144" horiz-adv-x="0" 
d="M128 297l232 -297h-230l-130 167v0l-130 -167h-230l232 297h128h128z" />
    <glyph glyph-name="glyph146" horiz-adv-x="0" 
d="M-375 13q17 116 83.5 184t164.5 68q21 0 67 -13t92 -32q30 -13 66.5 -21.5t58.5 -8.5q28 0 54 24.5t36 60.5h128q-14 -116 -75 -184t-150 -68q-21 0 -74 13t-108 32q-37 13 -73 21.5t-52 8.5q-30 0 -56 -24.5t-34 -60.5h-128z" />
    <glyph glyph-name="glyph148" horiz-adv-x="0" 
d="M-329 254h258v-235h-258v235zM70 254h258v-235h-258v235z" />
    <glyph glyph-name="glyph150" horiz-adv-x="0" 
d="M4 -76q-93 0 -157 62t-64 151t64 151t157 62t157 -62t64 -151t-64 -151t-157 -62v0zM4 35q47 0 79 29.5t32 72.5t-32 72.5t-79 29.5t-79 -29.5t-32 -72.5t32 -72.5t79 -29.5v0z" />
    <glyph glyph-name="glyph153" horiz-adv-x="0" 
d="M11 -1l-72 -110v0q47 8 57 7q81 0 130.5 -44t49.5 -116q0 -93 -69 -148t-186 -55q-55 0 -118.5 14.5t-116.5 39.5l45 96q51 -16 93 -24.5t65 -8.5q40 0 68 23t28 57q0 33 -22.5 53.5t-57.5 20.5q-17 0 -38.5 -4.5t-43.5 -12.5l-43 42l112 170h119z" />
    <glyph glyph-name="glyph179" horiz-adv-x="0" 
d="M-75 0l-300 297h314l193 -297h-207z" />
    <glyph glyph-name="glyph181" horiz-adv-x="0" 
d="M-122 0l193 297h314l-300 -297h-207z" />
    <glyph glyph-name="glyph183" horiz-adv-x="0" 
d="M128 297l232 -297h-230l-130 167v0l-130 -167h-230l232 297h128h128z" />
    <glyph glyph-name="glyph185" horiz-adv-x="0" 
d="M-375 13q17 116 83.5 184t164.5 68q21 0 67 -13t92 -32q30 -13 66.5 -21.5t58.5 -8.5q28 0 54 24.5t36 60.5h128q-14 -116 -75 -184t-150 -68q-21 0 -74 13t-108 32q-37 13 -73 21.5t-52 8.5q-30 0 -56 -24.5t-34 -60.5h-128z" />
    <glyph glyph-name="glyph187" horiz-adv-x="0" 
d="M-329 254h258v-235h-258v235zM70 254h258v-235h-258v235z" />
    <glyph glyph-name="glyph189" horiz-adv-x="0" 
d="M4 -76q-93 0 -157 62t-64 151t64 151t157 62t157 -62t64 -151t-64 -151t-157 -62v0zM4 35q47 0 79 29.5t32 72.5t-32 72.5t-79 29.5t-79 -29.5t-32 -72.5t32 -72.5t79 -29.5v0z" />
    <glyph glyph-name="glyph192" horiz-adv-x="0" 
d="M26 -1l-72 -109v0l57 6q81 0 130.5 -44t49.5 -116q0 -93 -69 -148t-186 -55q-56 0 -119.5 14.5t-115.5 39.5l45 96q50 -16 92 -24.5t66 -8.5q40 0 68 23t28 57q0 33 -22.5 53.5t-57.5 20.5q-16 0 -37.5 -4.5t-44.5 -12.5l-43 42l112 170h119z" />
    <glyph glyph-name="glyph219" horiz-adv-x="0" 
d="M-322 186h644v-162h-644v162z" />
    <glyph glyph-name="glyph221" horiz-adv-x="0" 
d="M-322 186h644v-162h-644v162z" />
    <glyph glyph-name="glyph223" horiz-adv-x="0" 
d="M6 0q-149 0 -227 72t-98 229h136q10 -77 57.5 -111.5t145.5 -34.5q108 0 159 34.5t58 111.5h136q-24 -157 -112.5 -229t-254.5 -72z" />
    <glyph glyph-name="glyph225" horiz-adv-x="0" 
d="M6 0q-149 0 -227 72t-98 229h136q10 -77 57.5 -111.5t145.5 -34.5q108 0 159 34.5t58 111.5h136q-24 -157 -112.5 -229t-254.5 -72z" />
    <glyph glyph-name="glyph227" horiz-adv-x="0" 
d="M-248 -275q0 90 63 165.5t166 108.5h178q-102 -60 -157.5 -126t-55.5 -128q0 -43 26 -70t67 -27q38 0 78.5 9.5t74.5 25.5l38 -102q-55 -21 -117 -34t-108 -13q-109 0 -181 55q-72 54 -72 136z" />
    <glyph glyph-name="glyph229" horiz-adv-x="0" 
d="M-248 -275q0 90 63 165.5t166 108.5h178q-102 -60 -157.5 -126t-55.5 -128q0 -43 26 -70t67 -27q38 0 78.5 9.5t74.5 25.5l38 -102q-55 -21 -117 -34t-108 -13q-109 0 -181 55q-72 54 -72 136z" />
    <glyph glyph-name="glyph233" horiz-adv-x="0" 
d="M-135 1l-232 297h230l130 -167v0l130 167h230l-232 -297h-128h-128z" />
    <glyph glyph-name="glyph235" horiz-adv-x="0" 
d="M-128 1l-232 297h230l130 -167v0l130 167h230l-232 -297h-128h-128z" />
    <glyph glyph-name="glyph238" horiz-adv-x="0" 
d="M-308 -28q-208 0 -335.5 162t-127.5 427q0 250 127 403t334 153q185 0 298 -156l12 -16v0v525v0h143h144v0v-1470v0h-139h-139v0v139v0l-5 -7q-119 -160 -312 -160zM-231 869q-115 0 -180 -88.5t-65 -245.5q0 -154 64.5 -240.5t179.5 -86.5q116 0 181 91t65 253
q0 149 -65 233t-180 84z" />
    <glyph glyph-name="glyph239" horiz-adv-x="0" 
d="M-22 449v133h121h121v-204q0 -166 -62 -258.5t-192 -119.5v0v82v0q78 24 105 89q20 47 24 144v0h-44h-73v134z" />
    <glyph glyph-name="glyph245" horiz-adv-x="0" 
d="M-129 255h258v-236h-258v236z" />
    <glyph glyph-name="glyph247" horiz-adv-x="0" 
d="M-129 255h258v-236h-258v236z" />
    <glyph glyph-name="glyph255" horiz-adv-x="0" 
d="M2 449v133h121h121v-204q0 -166 -62 -258.5t-192 -119.5v0v82v0q78 24 105 89q20 47 24 144v0h-44h-73v134z" />
    <glyph glyph-name="glyph257" horiz-adv-x="0" 
d="M115 133v-133h-121h-121v204q0 166 62 258.5t192 119.5v0v-82v0q-78 -24 -105 -89q-20 -47 -24 -144v0h44h73v-134z" />
    <glyph glyph-name="glyph282" horiz-adv-x="0" 
d="M-398 -45l193 297h314l-300 -297h-207zM73 -45l193 297h314l-300 -297h-207z" />
    <glyph glyph-name="glyph284" horiz-adv-x="0" 
d="M-398 0l193 297h314l-300 -297h-207zM73 0l193 297h314l-300 -297h-207z" />
    <glyph glyph-name="glyph300" horiz-adv-x="0" 
d="M-25 386v149h135h134v-197q0 -157 -69 -246.5t-213 -119.5v0v91v0q87 27 117 81q19 34 25 93v0h-48h-81v149z" />
    <glyph glyph-name="glyph302" horiz-adv-x="0" 
d="M-22 235v132h121h121v-178q0 -143 -62 -224t-192 -108v0v82v0q78 24 105 74q17 32 23 89v0h-43h-73v133z" />
    <glyph glyph-name="glyph350" horiz-adv-x="0" 
d="M-115 632v662v0h-235v0v88v88v0h701v0v-88v-88v0h-236v0v-662v0h-115h-115v0z" />
    <glyph glyph-name="glyph351" horiz-adv-x="0" 
d="M-290 632v0h-107h-108v0v838v0h156h156v0l195 -695v0v0l190 695v0h156h156v0v-838v0h-107h-108v0v763v0l-203 -763h-86h-86l-204 760v0v-760z" />
  </font>
</defs>
</svg>
